<?xml version="1.0" standalone="no"?>
<!DOCTYPE svg PUBLIC "-//W3C//DTD SVG 1.1//EN" "http://www.w3.org/Graphics/SVG/1.1/DTD/svg11.dtd" >
<svg xmlns="http://www.w3.org/2000/svg">
<metadata>
<json>
<![CDATA[
{
	"fontFamily": "font-wso2",
	"majorVersion": 1,
	"minorVersion": 2,
	"fontURL": "http://wso2-dev-ux.github.io/font-wso2/",
	"description": "WSO2 Products User Interface Icons Set\nFont generated by IcoMoon.",
	"copyright": "2015",
	"designer": "WSO2",
	"designerURL": "http://wso2.com",
	"license": "Apache License, Version 2.0 MIT",
	"licenseURL": "http://wso2.com/licenses",
	"version": "Version 1.2",
	"fontId": "font-wso2",
	"psName": "font-wso2",
	"subFamily": "Regular",
	"fullName": "font-wso2"
}
]]>
</json>
</metadata>
<defs>
<font id="font-wso2" horiz-adv-x="1024">
<font-face units-per-em="1024" ascent="960" descent="-64" />
<missing-glyph horiz-adv-x="1024" />
<glyph unicode="&#x20;" horiz-adv-x="512" d="" />
<glyph unicode="&#xe600;" glyph-name="airplay" data-tags="airplay" d="M1024 805.376v-574.83h-212.626l-72.777 93.55h191.854v387.73h-836.901v-387.73h185.929l-71.241-93.55h-208.238v574.83h1024zM860.891 90.624l-354.011 455.095-346.405-455.095h700.416z" />
<glyph unicode="&#xe601;" glyph-name="api" data-tags="api" d="M0 448c0-28.818 23.406-52.151 52.151-52.151h84.261v104.302h-84.261c-28.745 0-52.151-23.333-52.151-52.151zM0 617.545c0-28.818 23.406-52.151 52.151-52.151h84.261v104.375h-84.261c-28.745 0-52.151-23.406-52.151-52.224zM1024 617.691c0 28.818-23.406 52.078-52.151 52.078h-84.261v-104.229h84.261c28.745-0.073 52.151 23.333 52.151 52.151zM290.231-11.849c0-28.818 23.406-52.151 52.151-52.151 28.818 0 52.151 23.406 52.151 52.151v84.261h-104.302c0 0 0-84.261 0-84.261zM0 278.455c0-28.818 23.406-52.151 52.151-52.151h84.261v104.229h-84.261c-28.745-0.073-52.151-23.333-52.151-52.078zM459.849-11.849c0-28.745 23.333-52.151 52.151-52.151s52.151 23.406 52.151 52.151v84.261h-104.302c0 0 0-84.261 0-84.261zM733.769 907.849c0 28.745-23.406 52.151-52.224 52.151s-52.005-23.406-52.005-52.151v-84.261h104.229v84.261zM564.151 907.849c0 28.745-23.333 52.151-52.151 52.151s-52.151-23.406-52.151-52.151v-84.261h104.375c-0.073 0-0.073 84.261-0.073 84.261zM394.533 907.849c0 28.745-23.406 52.151-52.224 52.151s-52.078-23.406-52.078-52.151v-84.261h104.229v84.261zM971.849 330.459h-84.261v-104.229h84.261c28.818 0 52.151 23.406 52.151 52.151 0 28.818-23.406 52.078-52.151 52.078zM783.141 773.486h-542.208c-29.989 0-54.345-24.357-54.345-54.345v-542.208c0-29.989 24.357-54.345 54.345-54.345h542.208c29.989 0 54.345 24.357 54.345 54.345v542.135c0 30.062-24.357 54.418-54.345 54.418zM415.013 345.454l-17.262 57.271h-64.219l-15.579-57.271h-52.297l68.169 223.159h65.902l69.559-223.159h-54.272zM639.195 447.781c-17.262-15.872-43.081-23.552-72.85-23.552-6.656 0-12.581 0.366-17.262 1.317v-80.091h-49.957v220.16c15.579 2.633 37.376 4.608 68.169 4.608 31.159 0 53.687-5.925 68.535-18.213 14.263-10.898 23.552-29.403 23.552-51.273 0-22.162-7.022-40.741-20.187-52.955zM742.181 345.454h-50.322v223.159h50.322v-223.159zM971.849 500.151h-84.261v-104.375h84.261c28.745 0.073 52.151 23.406 52.151 52.224s-23.406 52.151-52.151 52.151zM569.929 531.895c-10.24 0-17.189-0.658-20.846-1.682v-65.902c4.315-0.951 9.582-1.317 16.896-1.317 26.843 0 43.374 13.605 43.374 36.059 0 20.553-13.897 32.841-39.424 32.841zM629.614-11.849h-0.073c0-28.818 23.333-52.151 52.151-52.151s52.151 23.406 52.151 52.151v84.261h-104.229v-84.261zM365.349 530.871h-1.024c-2.999-13.239-6.656-30.135-9.947-43.008l-13.531-47.397h49.298l-13.897 47.323c-3.657 13.312-7.607 30.135-10.898 43.081z" />
<glyph unicode="&#xe602;" glyph-name="apn" data-tags="apn" d="M323.268 896.31c32.719-3.468 32.252-21.743 32.217-43.911-0.395-243.656-0.246-487.315-0.234-730.975 0-3.252 0-6.505 0-11.77 3.857 3.538 6.491 5.777 8.926 8.212 75.002 74.962 149.889 150.040 225.161 224.73 5.573 5.531 13.444 10.174 21.018 11.953 13.636 3.205 26.732-4.558 32.96-16.895 6.009-11.906 4.076-25.761-5.375-36.040-5.172-5.622-10.743-10.877-16.149-16.284-90.495-90.497-180.987-180.996-271.491-271.482-18.853-18.848-35.085-18.915-54.045 0.029-94.761 94.69-189.493 189.406-284.176 284.176-17.352 17.369-15.768 41.172 3.215 52.652 13.259 8.022 28.388 5.804 40.77-6.518 35.109-34.935 70.076-70.013 105.096-105.040 41.13-41.136 82.254-82.279 123.393-123.409 1.619-1.619 3.339-3.134 6.277-5.877 0.241 4.406 0.558 7.48 0.558 10.556 0.011 243.304 0 486.607-0.011 729.913 0 1.069-0.094 2.826-0.17 3.893-1.486 21.128 2.068 40.678 32.061 42.088zM700.732-0.31c-32.719 3.468-32.252 21.743-32.217 43.911 0.395 243.656 0.246 487.315 0.234 730.975 0 3.252 0 6.505 0 11.77-3.857-3.538-6.491-5.777-8.926-8.212-75.002-74.962-149.891-150.040-225.161-224.73-5.573-5.531-13.444-10.174-21.018-11.953-13.636-3.205-26.732 4.558-32.96 16.895-6.009 11.906-4.076 25.761 5.375 36.040 5.172 5.622 10.743 10.877 16.149 16.284 90.495 90.497 180.987 180.996 271.491 271.482 18.853 18.848 35.085 18.915 54.045-0.029 94.761-94.69 189.493-189.406 284.176-284.176 17.352-17.369 15.768-41.172-3.215-52.652-13.259-8.022-28.388-5.804-40.772 6.518-35.107 34.935-70.074 70.013-105.094 105.040-41.13 41.136-82.254 82.279-123.393 123.409-1.619 1.619-3.339 3.134-6.277 5.877-0.241-4.406-0.558-7.48-0.558-10.556-0.011-243.304 0-486.607 0.011-729.913 0-1.069 0.094-2.826 0.17-3.893 1.486-21.128-2.068-40.677-32.061-42.088z" />
<glyph unicode="&#xe603;" glyph-name="vpn" data-tags="vpn" d="M207.36-64l-109.349 334.848h46.738l52.151-164.937c14.409-45.202 26.843-85.943 35.767-125.147h1.024c9.435 38.766 23.333 80.969 38.254 124.635l56.613 165.449h46.226l-119.735-334.848h-47.689zM410.624 266.898c20.919 3.438 48.201 6.363 82.944 6.363 42.789 0 74.021-9.947 93.915-27.794 18.359-15.872 29.257-40.229 29.257-69.998 0-30.281-8.923-54.126-25.819-71.534-22.821-24.43-60.123-36.791-102.254-36.791-12.946 0-24.869 0.512-34.816 2.999v-134.144h-43.227v330.898zM453.851 105.326c9.435-2.487 21.358-3.438 35.767-3.438 52.151 0 83.968 25.381 83.968 71.534 0 44.178-31.305 65.609-78.994 65.609-18.871 0-33.28-1.463-40.741-3.511v-130.194zM674.597-64v334.848h47.177l107.301-169.472c24.869-39.205 44.178-74.533 60.050-108.763l1.024 0.512c-3.95 44.617-5.047 85.431-5.047 137.582v140.142h40.741v-334.848h-43.739l-106.277 169.911c-23.333 37.23-45.714 75.483-62.537 111.762l-1.463-0.439c2.487-42.277 3.438-82.505 3.438-138.094v-143.141h-40.667zM692.224 705.17h-65.902v87.845c0 52.736-43.959 96.695-96.695 96.695s-96.622-43.959-96.622-96.695v-87.918h-65.902v87.918c0 92.306 70.29 166.985 162.523 166.985s162.597-74.679 162.597-162.597v-92.233zM762.514 379.977v259.218c0 17.554-17.554 35.182-35.182 35.182h-395.41c-21.943 0-35.182-13.166-35.182-35.182v-259.218c0-17.554 13.166-35.182 35.182-35.182h395.483c21.943 0 35.109 17.627 35.109 35.182zM551.643 529.335v-92.306h-43.959v92.306c-8.777 8.777-17.554 21.943-17.554 35.182 0 21.943 17.554 39.57 39.57 39.57s39.57-17.554 39.57-39.57c-0.073-13.166-8.85-26.331-17.627-35.182z" />
<glyph unicode="&#xe604;" glyph-name="apple" data-tags="apple" horiz-adv-x="878" d="M263.314 718.629c80.457 0 131.657-43.886 197.486-43.886s102.4 43.886 197.486 43.886c73.143 0 146.286-36.571 197.486-102.4-175.543-95.086-146.286-343.771 29.257-409.6-21.943-51.2-36.571-80.457-65.829-124.343-43.886-65.829-102.4-146.286-182.857-146.286-65.829 0-87.771 43.886-175.543 43.886-95.086 0-109.714-43.886-182.857-43.886s-131.657 73.143-175.543 138.971c-117.029 182.857-131.657 402.286-58.514 519.314 51.2 80.457 138.971 124.343 219.429 124.343zM629.029 960c14.629-65.829-14.629-124.343-43.886-168.229-36.571-43.886-102.4-80.457-160.914-80.457-7.314 58.514 14.629 124.343 51.2 160.914 36.571 51.2 102.4 80.457 153.6 87.771z" />
<glyph unicode="&#xe605;" glyph-name="windows" data-tags="windows" horiz-adv-x="1075" d="M497.371 418.743h585.143v-482.743l-577.829 80.457-7.314 402.286zM7.314 426.057h438.857v-402.286l-438.857 58.514v343.771zM446.171 872.229v-402.286h-438.857v351.086l438.857 51.2zM1075.2 960v-482.743l-577.829-7.314v409.6l577.829 80.457z" />
<glyph unicode="&#xe606;" glyph-name="android" data-tags="android" horiz-adv-x="848" d="M146.286 645.486h563.2v-475.429c0-21.943-14.629-36.571-36.571-36.571h-73.143v-146.286c0-21.943-29.257-51.2-58.514-51.2s-58.514 29.257-58.514 58.514v146.286h-109.714v-146.286c0-29.257-29.257-58.514-58.514-58.514s-58.514 29.257-58.514 58.514v146.286h-73.143c-21.943 0-36.571 14.629-36.571 36.571v468.114zM789.943 660.114c29.257 0 58.514-29.257 58.514-58.514v-263.314c0-29.257-29.257-58.514-58.514-58.514s-58.514 29.257-58.514 58.514v263.314c0 36.571 29.257 58.514 58.514 58.514zM58.514 660.114c29.257 0 58.514-29.257 58.514-58.514v-263.314c0-29.257-29.257-58.514-58.514-58.514s-58.514 29.257-58.514 58.514v263.314c0 36.571 21.943 58.514 58.514 58.514zM548.571 828.343c-21.943 0-36.571-14.629-36.571-29.257s14.629-36.571 36.571-36.571 36.571 14.629 36.571 36.571-21.943 29.257-36.571 29.257zM299.886 828.343c-14.629 0-29.257-14.629-29.257-29.257s14.629-36.571 36.571-36.571c21.943 0 36.571 14.629 36.571 36.571s-21.943 29.257-43.886 29.257zM248.686 960c0 0 0 0 0 0l51.2-65.829c36.571 14.629 73.143 21.943 124.343 21.943s87.771-7.314 124.343-21.943l43.886 65.829c0 0 7.314 0 7.314 0s7.314-7.314 0-7.314l-43.886-65.829c138.971-58.514 138.971-204.8 138.971-204.8h-548.571c0 0 7.314 146.286 138.971 212.114l-43.886 58.514c0 0 0 0 7.314 7.314 0 0 0 0 0 0z" />
<glyph unicode="&#xe607;" glyph-name="wifi" data-tags="wifi" horiz-adv-x="1324" d="M841.143 192c-102.4 95.086-241.371 109.714-358.4 0-7.314-7.314-7.314-7.314 0-21.943l175.543-175.543 175.543 168.229c21.943 21.943 14.629 29.257 7.314 29.257zM1097.143 411.429c-241.371 241.371-636.343 241.371-877.714 0 0-14.629 0-21.943 0-29.257l124.343-124.343c7.314-7.314 21.943-7.314 21.943 0 160.914 160.914 424.229 160.914 585.143 0 7.314-7.314 14.629-7.314 21.943 0l124.343 124.343c14.629 7.314 14.629 21.943 0 29.257v0zM1323.886 623.543v0c-365.714 365.714-958.171 358.4-1316.571 0-7.314-7.314-7.314-14.629 0-21.943l131.657-131.657c7.314-7.314 14.629-7.314 21.943 0 277.943 277.943 738.743 277.943 1016.686 0 7.314-7.314 14.629-7.314 21.943 0l131.657 131.657c-7.314 7.314-7.314 14.629-7.314 21.943z" />
<glyph unicode="&#xe608;" glyph-name="application" data-tags="application" horiz-adv-x="914" d="M915.781 585.839c0.047 45.58 0.091 91.163 0.091 136.743 0 11.891-6.491 22.364-17.176 27.726-110.61 55.415-279.657 138.904-391.52 194.152l-7.475 3.692c-32.63 16.116-67.685 15.788-101.371-0.962-81.88-40.708-165.020-82.301-245.424-122.527-41.52-20.773-83.040-41.544-124.576-62.29-6.638-3.317-20.453-10.217-17.136-24.986 1.915-8.536 10.034-16.004 17.225-19.621 80.895-40.683 163.23-81.875 242.853-121.708 51.958-25.996 103.916-51.988 155.851-78.027 37.938-19.020 76.598-18.991 114.922 0.078 69.672 34.676 139.397 69.248 209.127 103.819l62.759 31.121c13.205 6.551 26.427 13.069 40.116 19.817l5.685 2.806c0-39.163-0.040-78.319-0.076-117.482-0.105-104.942-0.212-213.46 0.435-320.199 0.206-33.706-14.092-56.598-44.989-72.052-102.263-51.143-204.52-102.284-306.79-153.406l0.007 72.518c0.011 95.453 0.023 194.152-0.138 291.232-0.023 12.712-1.096 23.589-3.286 33.263-8.409 37.089-32.181 65.679-70.656 84.975-79.843 40.042-161.101 80.592-239.683 119.806l-66.964 33.424c-31.368 15.658-62.759 31.27-94.188 46.808-12.17 6.018-20.163 3.962-24.727 1.174-6.698-4.094-10.179-11.824-10.342-22.98-0.031-2.107-0.025-4.214-0.015-6.32l0.004-2.668c0-38.768 0.040-77.534 0.080-116.299 0.1-95.692 0.203-194.64-0.335-291.944-0.297-54.127 24.612-94.226 74.032-119.174 33.477-16.904 72.321-36.56 113.23-57.261 91.089-46.090 194.333-98.333 269.723-136.065 2.398-1.199 4.857-2.308 7.645-3.558l0.879-0.395c3.487-2.047 7.451-3.071 11.643-3.071 4.487 0 9.232 1.174 13.931 3.518 24.614 12.297 49.221 24.607 73.83 36.92l57.149 28.583c22.638 11.322 45.294 22.605 67.951 33.893 50.393 25.109 102.502 51.069 153.587 76.969 50.471 25.591 74.857 64.761 74.545 119.755-0.668 116.719-0.547 235.414-0.433 350.201zM826.895 722.784l-56.623-28.076c-85.083-42.187-170.163-84.377-255.217-126.621-20.612-10.239-40.391-10.321-60.464-0.27-76.016 38.074-152.063 76.080-228.111 114.087l-116.056 58.013 50.362 25.243c85.734 42.982 174.386 87.428 261.768 130.741 7.793 3.859 17.397 6.015 25.781 5.745 11.636-0.369 22.632-2.837 30.966-6.955 25.362-12.532 54.38-26.849 85.23-42.072 88.207-43.524 187.341-92.437 262.363-129.837zM451.659 70.623l0.031-62.011c-28.788 14.389-67.607 34.165-105.326 53.388-35.46 18.067-68.953 35.132-91.924 46.605l-31.703 15.848c-40.014 20.005-81.388 40.689-122.212 60.804-31.955 15.75-46.705 39.67-46.415 75.282 0.707 86.904 0.58 175.246 0.456 260.681-0.049 33.087-0.096 66.172-0.098 99.259l81.605-40.659c89.871-44.77 182.804-91.065 274.096-136.81 28.19-14.122 41.839-36.402 41.73-68.107-0.357-101.432-0.296-204.553-0.241-304.28z" />
<glyph unicode="&#xe609;" glyph-name="applications" data-tags="applications" d="M486.882 288.873c0.025 24.181 0.049 48.364 0.049 72.547 0 6.308-3.444 11.864-9.111 14.71-58.683 29.4-148.37 73.692-207.718 103.004l-3.964 1.959c-17.312 8.549-35.911 8.375-53.781-0.511-43.44-21.596-87.549-43.665-130.207-65.004-22.027-11.023-44.056-22.042-66.091-33.049-3.523-1.759-10.851-5.42-9.092-13.256 1.016-4.529 5.323-8.491 9.138-10.408 42.919-21.584 86.6-43.437 128.844-64.571 27.565-13.79 55.129-27.581 82.683-41.395 20.127-10.092 40.638-10.076 60.971 0.042 36.964 18.398 73.955 36.737 110.951 55.080l33.295 16.509c7.006 3.476 14.020 6.933 21.284 10.514l3.018 1.489c0-20.777-0.023-41.551-0.042-62.328-0.056-55.676-0.112-113.25 0.232-169.877 0.107-17.882-7.477-30.029-23.868-38.225-54.254-27.134-108.507-54.265-162.763-81.388l0.002 38.473c0.007 50.64 0.013 103.004-0.074 154.511-0.011 6.741-0.58 12.513-1.743 17.647-4.46 19.676-17.072 34.844-37.484 45.080-42.361 21.246-85.471 42.759-127.161 63.563l-35.529 17.732c-16.641 8.308-33.295 16.59-49.969 24.835-6.458 3.192-10.699 2.101-13.12 0.622-3.553-2.172-5.399-6.274-5.484-12.192-0.018-1.118-0.013-2.237-0.009-3.353l0.002-1.415c0-20.567 0.023-41.134 0.042-61.701 0.053-50.768 0.107-103.265-0.176-154.888-0.159-28.717 13.056-49.989 39.275-63.225 17.761-8.969 38.371-19.397 60.074-30.379 48.326-24.453 103.101-52.17 143.098-72.188 1.273-0.636 2.578-1.225 4.056-1.889l0.467-0.21c1.851-1.085 3.953-1.63 6.176-1.63 2.382 0 4.9 0.622 7.393 1.866 13.056 6.524 26.111 13.056 39.167 19.587l30.321 15.165c12.012 6.006 24.029 11.993 36.049 17.982 26.737 13.322 54.382 27.094 81.484 40.835 26.777 13.578 39.714 34.357 39.549 63.533-0.356 61.924-0.292 124.897-0.231 185.797zM439.723 361.527l-30.038-14.897c-45.141-22.382-90.279-44.763-135.404-67.177-10.936-5.431-21.429-5.475-32.078-0.143-40.328 20.198-80.677 40.364-121.022 60.526l-61.572 30.779 26.719 13.393c45.485 22.804 92.518 46.384 138.877 69.361 4.134 2.049 9.23 3.194 13.678 3.049 6.174-0.195 12.006-1.505 16.429-3.69 13.455-6.649 28.85-14.243 45.219-22.32 46.798-23.091 99.391-49.042 139.192-68.884zM240.647 15.529l0.015-32.9c-15.272 7.634-35.866 18.127-55.877 28.326-18.812 9.585-36.582 18.638-48.77 24.725l-16.819 8.409c-21.23 10.614-43.181 21.587-64.839 32.259-16.953 8.355-24.779 21.047-24.625 39.94 0.375 46.105 0.308 92.973 0.241 138.301-0.025 17.554-0.051 35.107-0.051 52.661l43.295-21.571c47.681-23.752 96.985-48.315 145.418-72.583 14.956-7.493 22.199-19.313 22.14-36.134-0.189-53.812-0.157-108.522-0.127-161.433zM1023.768 288.873c0.025 24.181 0.049 48.364 0.049 72.547 0 6.308-3.444 11.864-9.111 14.71-58.683 29.4-148.37 73.692-207.718 103.004l-3.964 1.959c-17.312 8.549-35.911 8.375-53.781-0.511-43.442-21.596-87.549-43.665-130.207-65.004-22.029-11.023-44.056-22.042-66.091-33.049-3.523-1.759-10.853-5.42-9.092-13.256 1.016-4.529 5.321-8.491 9.138-10.408 42.919-21.584 86.6-43.437 128.842-64.571 27.567-13.79 55.131-27.581 82.685-41.395 20.127-10.092 40.638-10.076 60.971 0.042 36.962 18.398 73.955 36.737 110.949 55.080l33.297 16.509c7.006 3.476 14.020 6.933 21.284 10.514l3.018 1.489c0-20.777-0.023-41.551-0.042-62.328-0.056-55.676-0.112-113.25 0.232-169.877 0.107-17.882-7.477-30.029-23.868-38.225-54.254-27.134-108.507-54.265-162.763-81.388l0.002 38.473c0.007 50.64 0.013 103.004-0.074 154.511-0.011 6.741-0.58 12.513-1.743 17.647-4.46 19.676-17.072 34.844-37.484 45.080-42.361 21.246-85.471 42.759-127.161 63.563l-35.529 17.732c-16.641 8.308-33.295 16.59-49.969 24.835-6.458 3.192-10.699 2.101-13.12 0.622-3.553-2.172-5.399-6.274-5.484-12.192-0.018-1.118-0.013-2.237-0.009-3.353l0.002-1.415c0-20.567 0.023-41.134 0.042-61.701 0.053-50.768 0.107-103.265-0.176-154.888-0.159-28.717 13.056-49.989 39.275-63.225 17.761-8.969 38.371-19.397 60.074-30.379 48.326-24.453 103.101-52.17 143.098-72.188 1.273-0.636 2.578-1.225 4.056-1.889l0.467-0.21c1.848-1.085 3.953-1.63 6.176-1.63 2.382 0 4.9 0.622 7.393 1.866 13.056 6.524 26.111 13.056 39.167 19.587l30.321 15.165c12.012 6.006 24.029 11.993 36.049 17.982 26.737 13.322 54.382 27.094 81.484 40.835 26.777 13.578 39.714 34.357 39.549 63.533-0.356 61.924-0.292 124.897-0.231 185.797zM976.609 361.527l-30.038-14.897c-45.141-22.382-90.279-44.763-135.404-67.177-10.936-5.431-21.429-5.475-32.078-0.143-40.328 20.198-80.677 40.364-121.022 60.526l-61.572 30.779 26.719 13.393c45.485 22.804 92.518 46.384 138.877 69.361 4.134 2.049 9.23 3.194 13.678 3.049 6.172-0.195 12.006-1.505 16.429-3.69 13.455-6.649 28.85-14.243 45.219-22.32 46.798-23.091 99.391-49.042 139.192-68.884zM777.533 15.529l0.015-32.9c-15.272 7.634-35.869 18.127-55.88 28.326-18.812 9.585-36.58 18.638-48.768 24.725l-16.819 8.409c-21.23 10.614-43.181 21.587-64.839 32.259-16.953 8.355-24.779 21.047-24.625 39.94 0.375 46.105 0.308 92.973 0.241 138.301-0.025 17.554-0.051 35.107-0.051 52.661l43.295-21.571c47.679-23.752 96.985-48.315 145.418-72.583 14.956-7.493 22.199-19.313 22.14-36.134-0.189-53.812-0.157-108.522-0.127-161.433zM740.56 753.386c0.025 24.181 0.049 48.364 0.049 72.547 0 6.308-3.444 11.864-9.111 14.71-58.683 29.4-148.37 73.694-207.718 103.004l-3.964 1.959c-17.312 8.549-35.911 8.375-53.781-0.511-43.44-21.596-87.549-43.663-130.207-65.004-22.027-11.023-44.056-22.042-66.091-33.049-3.523-1.759-10.851-5.42-9.092-13.254 1.016-4.529 5.323-8.491 9.138-10.41 42.919-21.582 86.6-43.437 128.844-64.569 27.565-13.793 55.129-27.583 82.683-41.397 20.127-10.089 40.638-10.074 60.971 0.042 36.964 18.398 73.955 36.739 110.951 55.080l33.297 16.511c7.004 3.476 14.018 6.933 21.281 10.514l3.018 1.486c0-20.777-0.023-41.551-0.042-62.328-0.056-55.676-0.112-113.25 0.232-169.877 0.107-17.882-7.477-30.027-23.868-38.225-54.254-27.134-108.507-54.265-162.763-81.388l0.002 38.473c0.007 50.64 0.013 103.006-0.074 154.511-0.011 6.743-0.58 12.513-1.743 17.647-4.46 19.676-17.072 34.844-37.484 45.080-42.361 21.246-85.471 42.759-127.161 63.563l-35.529 17.732c-16.641 8.308-33.295 16.592-49.969 24.835-6.458 3.192-10.699 2.101-13.12 0.622-3.553-2.172-5.399-6.272-5.484-12.192-0.018-1.118-0.013-2.237-0.009-3.353l0.002-1.415c0-20.567 0.023-41.134 0.042-61.701 0.053-50.768 0.107-103.263-0.176-154.888-0.159-28.717 13.056-49.989 39.275-63.225 17.761-8.969 38.371-19.397 60.074-30.379 48.326-24.453 103.101-52.17 143.098-72.188 1.273-0.636 2.578-1.223 4.056-1.889l0.467-0.21c1.851-1.085 3.953-1.63 6.176-1.63 2.382 0 4.9 0.622 7.393 1.866 13.058 6.524 26.111 13.056 39.167 19.589l30.321 15.163c12.012 6.006 24.031 11.993 36.049 17.982 26.737 13.322 54.382 27.094 81.484 40.835 26.777 13.578 39.714 34.357 39.549 63.533-0.355 61.925-0.291 124.898-0.23 185.797zM693.402 826.040l-30.038-14.895c-45.141-22.382-90.279-44.766-135.404-67.177-10.936-5.433-21.429-5.475-32.078-0.145-40.328 20.201-80.674 40.364-121.022 60.526l-61.572 30.779 26.719 13.393c45.485 22.804 92.518 46.384 138.877 69.364 4.134 2.047 9.23 3.192 13.678 3.047 6.174-0.195 12.006-1.505 16.429-3.69 13.455-6.647 28.85-14.243 45.219-22.32 46.798-23.091 99.391-49.042 139.192-68.884zM494.326 480.042l0.018-32.897c-15.274 7.634-35.869 18.125-55.88 28.324-18.812 9.585-36.582 18.638-48.77 24.727l-16.819 8.406c-21.23 10.614-43.181 21.587-64.839 32.259-16.953 8.355-24.779 21.047-24.625 39.94 0.375 46.105 0.308 92.973 0.241 138.301-0.025 17.554-0.051 35.107-0.051 52.661l43.295-21.571c47.681-23.752 96.985-48.315 145.418-72.583 14.956-7.493 22.199-19.313 22.14-36.134-0.189-53.812-0.156-108.522-0.127-161.433z" />
<glyph unicode="&#xe60a;" glyph-name="battery" data-tags="battery" horiz-adv-x="1322" d="M247.881 571.904h330.459l247.881-247.881h-578.341v247.881zM165.23 654.555v-413.111h908.873v413.111h-908.873zM0 819.785h1239.333v-247.881h82.651v-330.533h-82.651v-165.23h-1239.333v743.643z" />
<glyph unicode="&#xe60b;" glyph-name="notification" data-tags="notification" d="M445.997 897.444c8.311 43.159 31.238 64.025 68.645 62.476 34.423-1.426 57.929-24.994 61.296-62.502 12.037-2.695 24.549-5.053 36.821-8.31 123.622-32.824 193.164-115.981 220.911-237.874 10.617-46.639 12.685-94.067 12.914-141.666 0.285-59.165 4.392-117.916 15.623-176.201 14.836-76.992 52.152-139.786 113.896-188.176 14.838-11.629 29.070-24.033 45.798-37.921-341.47 0-679.78 0-1019.804 0 2.771 3.003 4.671 5.571 7.055 7.556 11.949 9.945 23.749 20.101 36.103 29.523 70.434 53.716 108.282 126.245 118.521 212.713 6.617 55.88 9.287 112.327 11.448 168.607 2.191 57.036 6.309 113.54 25.109 167.894 39.695 114.757 121.225 180.203 239.427 202.065 1.744 0.323 3.502 0.58 5.234 0.96 0.377 0.083 0.669 0.56 1.001 0.856zM509.194-63.992c70.22-0.782 136.589 53.617 138.806 114.030-90.953 0-181.895 0-272.844 0 0.807-57.618 66.583-113.278 134.038-114.030z" />
<glyph unicode="&#xe60c;" glyph-name="blank-document" data-tags="blank-document" horiz-adv-x="779" d="M551.165 959.853h-39.15l-0.219 0.147v-0.147h-459.17c-29.123 0-52.756-23.634-52.756-52.756v-918.337c0-29.123 23.634-52.759 52.756-52.759h673.35c29.123 0 52.759 23.636 52.759 52.759v752.889l-227.571 218.205zM712.003-18.183l-641.946 1.136c-12.221 0-22.172 9.951-22.172 22.172v881.458c0 12.221 9.951 22.172 22.172 22.172l441.741-1.743v-152.411c0-27.806 22.609-50.417 50.417-50.417l172.033 0.607v-700.801c-0.074-12.221-9.951-22.172-22.246-22.172z" />
<glyph unicode="&#xe60d;" glyph-name="bookmark" data-tags="bookmark" d="M877.714 960c7.314-7.314 7.314-14.629 7.314-21.943 0-329.143 0-650.971 0-980.114 0-7.314 0-14.629-7.314-21.943s-14.629 0-21.943 7.314c-117.029 73.143-226.743 146.286-343.771 219.429-7.314 7.314-14.629 7.314-21.943 0-109.714-73.143-219.429-146.286-329.143-219.429-7.314 0-7.314-7.314-14.629-7.314s-14.629 7.314-14.629 21.943c0 51.2 0 102.4 0 153.6 0 277.943 0 548.571 0 826.514 0 7.314 0 14.629 7.314 21.943 248.686 0 497.371 0 738.743 0zM650.971 404.114l-14.629 117.029c0 7.314 0 14.629 7.314 14.629l80.457 80.457c7.314 14.629 0 36.571-14.629 36.571l-117.029 14.629c0 0-7.314 7.314-14.629 14.629l-51.2 102.4c-7.314 14.629-29.257 14.629-36.571 0l-43.886-109.714c-7.314 0-14.629-7.314-14.629-7.314l-117.029-14.629c-14.629-7.314-21.943-21.943-14.629-36.571l87.771-80.457c0-7.314 7.314-7.314 7.314-14.629l-21.943-117.029c0-14.629 14.629-29.257 29.257-21.943l102.4 58.514c7.314 0 14.629 0 14.629 0l102.4-51.2c14.629-14.629 36.571 0 29.257 14.629z" />
<glyph unicode="&#xe60e;" glyph-name="bpel" data-tags="bpel" d="M864.331 342.821v58.295h0.219v60.857h-319.563v88.478c99.344 14.768 176.085 99.857 176.085 203.263 0 113.75-92.571 206.286-206.286 206.286-113.75 0-206.321-92.536-206.321-206.286 0-103.254 76.518-188.263 175.669-203.219v-88.598h-324.17v-30.424h-0.295v-88.656c-91.272-21.264-159.669-102.849-159.669-200.496 0-113.75 92.571-206.321 206.321-206.321 113.714 0 206.286 92.571 206.286 206.321 0 108.91-85.125 197.446-192.157 204.857v53.938h582.951v-53.955c-106.973-7.504-192.009-95.991-192.009-204.839 0-113.75 92.571-206.321 206.321-206.321 113.714 0 206.286 92.571 206.286 206.321 0.001 97.657-68.405 179.245-159.669 200.5zM357.75 142.321c0-83.536-67.929-151.464-151.428-151.464s-151.464 67.929-151.464 151.464c0 83.5 67.964 151.428 151.464 151.428s151.428-67.929 151.428-151.428zM363.322 753.714c0 83.5 67.964 151.428 151.464 151.428s151.428-67.929 151.428-151.428c0-83.536-67.929-151.464-151.428-151.464s-151.464 67.929-151.464 151.464zM817.714-9.143c-83.5 0-151.464 67.929-151.464 151.464 0 83.5 67.964 151.428 151.464 151.428s151.428-67.929 151.428-151.428c0-83.536-67.929-151.464-151.428-151.464z" />
<glyph unicode="&#xe60f;" glyph-name="bpmn" data-tags="bpmn" d="M1024 801.125c0 87.598-71.277 158.875-158.907 158.875-87.598 0-158.875-71.277-158.875-158.875 0-85.429 67.937-154.826 152.553-158.232v-173.531h-117.179l-218.402 218.255c-6.219 6.219-16.236 6.219-22.384 0l-220.085-220.085h-158.062v-218.335c-70.134-16.486-122.661-79.232-122.661-154.321 0-87.598 71.277-158.875 158.875-158.875 87.63 0 158.907 71.277 158.907 158.875 0 85.42-67.924 154.808-152.553 158.228v171.786h119.004l216.504-216.504c6.143-6.143 16.165-6.143 22.38 0l218.335 218.259h159.817v220.148c70.183 16.468 122.732 79.228 122.732 154.334zM264.219 94.875c0-58.098-47.25-105.313-105.344-105.313-58.062 0-105.313 47.214-105.313 105.313 0 58.094 47.25 105.308 105.313 105.308 58.094 0 105.344-47.214 105.344-105.308zM865.093 695.817c-58.062 0-105.313 47.214-105.313 105.308 0 58.098 47.25 105.313 105.313 105.313 58.094 0 105.344-47.214 105.344-105.313 0-58.094-47.25-105.308-105.344-105.308z" />
<glyph unicode="&#xe610;" glyph-name="broken-link" data-tags="broken-link" d="M938.835 340.48c5.851-2.194 8.777-8.777 6.583-14.629l-5.853-17.554c-2.194-5.851-8.777-8.777-15.359-6.583l-138.971 49.736c-5.853 2.194-8.777 8.777-6.583 14.629l5.851 17.554c2.194 5.853 8.777 9.509 14.629 7.315l139.703-50.469zM754.513 261.486c-4.389 5.119-11.703 5.119-16.091 0.73l-13.897-12.433c-4.389-3.659-5.119-10.971-0.73-16.091l99.474-108.984c4.389-5.119 11.703-5.119 16.824-0.73l13.165 12.433c5.121 4.389 5.121 11.703 0.732 16.091l-99.476 108.984zM643.337 34.744l18.286 4.389c5.851 1.462 9.509 8.045 8.045 13.897l-34.377 144.091c-1.462 5.851-8.045 10.239-13.895 8.045l-18.286-3.656c-5.853-1.464-9.509-8.047-8.047-13.897l34.377-144.091c1.462-5.851 8.047-10.241 13.897-8.777zM620.663 436.297v-0.732l1.462 0.732c0 0-0.73 0-1.462 0zM522.652 345.601c0.73-0.732 0.73-1.464 0.73-2.194l1.464 1.462-2.194 0.732zM505.828 533.578l-0.732-0.732 1.464-1.462c0 0.731 0 1.462-0.732 2.194zM505.828 533.578c-13.897 37.301-5.851 81.188 24.139 111.176l190.17 190.172c40.23 40.228 106.79 40.228 147.75 0l30.719-31.453c40.23-40.228 40.23-106.788 0-147.748l-190.172-189.44c-23.404-24.136-55.587-33.645-86.308-29.989l-1.462-0.732 39.498-93.623c42.422 5.853 83.381 24.871 115.565 57.051l190.172 190.172c77.531 77.531 77.531 204.069-0.732 281.601l-30.719 30.721c-77.531 78.261-204.069 78.261-281.601 0l-190.172-189.442c-32.915-32.913-51.931-74.605-57.051-117.759l99.474-61.44 0.731 0.732zM422.446 454.583c0.73 0.732 0.73 0.732 0.73 0l-0.73 0.732v-0.732zM367.589 886.125l-18.286-5.119c-5.853-2.194-9.509-8.047-8.047-14.629l40.23-141.897c1.462-6.583 8.045-10.239 13.895-8.045l18.286 5.119c5.853 1.464 9.509 8.047 8.047 13.897l-40.228 142.629c-1.464 5.851-8.046 9.509-13.897 8.045zM174.491 789.578l-13.165-13.167c-4.389-4.389-4.389-11.703 0-16.091l103.861-105.326c4.389-4.389 11.703-4.389 16.091 0l13.167 13.167c4.389 4.389 4.389 11.703 0 16.091l-103.864 105.326c-4.389 4.389-11.703 4.389-16.091 0zM422.446 454.583v0.732l-54.127 99.474h-0.73c-43.886-5.119-86.31-24.136-119.223-57.781l-190.172-189.442c-77.531-78.261-77.531-204.799 0-282.331l30.721-30.721c78.261-78.261 204.799-78.261 282.331 0l190.172 190.172c32.913 32.915 51.931 75.337 57.051 119.223l-93.623 40.96-1.464-1.462c5.121-32.915-4.389-67.292-29.256-92.161l-190.172-189.44c-40.96-40.96-106.788-40.96-147.748 0l-30.719 30.721c-40.962 40.228-40.962 106.788 0 147.748l190.17 190.172c28.526 28.525 70.948 37.301 106.789 24.136zM96.227 608.915c-5.851 2.194-12.433-1.464-14.627-7.315l-5.121-17.556c-2.194-6.583 1.462-13.165 7.315-14.627l141.165-44.619c5.851-2.194 12.435 1.464 14.629 7.315l5.119 17.556c2.194 5.851-1.462 12.433-7.313 14.627l-141.167 44.619z" />
<glyph unicode="&#xe611;" glyph-name="bug" data-tags="bug" d="M512-20.114c-43.886 0-87.771 14.629-124.343 43.886-73.143 51.2-109.714 124.343-131.657 204.8 0 7.314-7.314 14.629-7.314 21.943 0 0 0 0-7.314 0-36.571-14.629-65.829-29.257-95.086-43.886-7.314 0-7.314-14.629-7.314-21.943-14.629-73.143-21.943-146.286-36.571-219.429-14.629-14.629-29.257-29.257-43.886-29.257-21.943 0-29.257 14.629-29.257 43.886 14.629 87.771 29.257 168.229 43.886 256 0 7.314 7.314 14.629 21.943 21.943 36.571 14.629 73.143 36.571 117.029 51.2 14.629 7.314 29.257 14.629 21.943 36.571 0 14.629 0 36.571 0 51.2s-7.314 21.943-21.943 29.257c-36.571 7.314-80.457 21.943-117.029 36.571-7.314 0-21.943 7.314-21.943 21.943-21.943 51.2-36.571 109.714-58.514 168.229-7.314 21.943 0 43.886 21.943 43.886 21.943 14.629 36.571 0 43.886-21.943 14.629-43.886 29.257-95.086 43.886-138.971 0-14.629 7.314-21.943 21.943-21.943 29.257-7.314 58.514-14.629 87.771-21.943 0 0 7.314 0 7.314 7.314 0 0 0 7.314 0 7.314s0 7.314 7.314 7.314c14.629 0 21.943 0 29.257 0 65.829 0 124.343 0 190.171 0v0c7.314 0 14.629 0 14.629 0 7.314 0 14.629 0 21.943 0s7.314 0 14.629 0 7.314 0 14.629 0 14.629 0 21.943 0c7.314 0 14.629 0 14.629 0v0c65.829 0 124.343 0 190.171 0 7.314 0 21.943 0 29.257 0 0 0 0 0 7.314-7.314 0 0 0-7.314 0-7.314s0-7.314 7.314-7.314c29.257 7.314 58.514 14.629 87.771 21.943 14.629 0 21.943 7.314 21.943 21.943 14.629 43.886 29.257 95.086 43.886 138.971 7.314 21.943 21.943 36.571 43.886 29.257s29.257-21.943 21.943-43.886c-36.571-65.829-51.2-124.343-73.143-175.543 0-7.314-14.629-21.943-21.943-21.943-36.571-14.629-80.457-21.943-117.029-36.571-14.629-7.314-21.943-14.629-21.943-29.257s0-36.571 0-51.2c0-21.943 7.314-29.257 21.943-36.571 36.571-14.629 80.457-36.571 117.029-51.2 7.314-7.314 14.629-14.629 21.943-21.943 14.629-87.771 29.257-168.229 43.886-256 7.314-29.257-7.314-43.886-29.257-43.886-14.629 0-29.257 14.629-36.571 36.571-14.629 73.143-21.943 146.286-36.571 219.429 0 7.314-7.314 14.629-7.314 21.943-29.257 14.629-65.829 29.257-95.086 43.886 0 0-7.314 0-7.314 0 0-7.314-7.314-14.629-7.314-21.943-21.943-80.457-65.829-153.6-131.657-204.8-43.886-36.571-87.771-51.2-131.657-51.2v0zM190.171 908.8c87.771-21.943 146.286-80.457 168.229-168.229 7.314-21.943 7.314-29.257-7.314-43.886-36.571-43.886-51.2-95.086-51.2-146.286 138.971 0 277.943 0 416.914 0 7.314 43.886-14.629 102.4-43.886 146.286-14.629 14.629-14.629 21.943-14.629 36.571 29.257 87.771 87.771 146.286 175.543 175.543 14.629 7.314 29.257 14.629 29.257 36.571-7.314 14.629-21.943 14.629-36.571 14.629-102.4-36.571-168.229-95.086-204.8-190.171 0-7.314-7.314-14.629-7.314-21.943-65.829 36.571-131.657 36.571-204.8 0-7.314 7.314-7.314 14.629-7.314 29.257-36.571 95.086-109.714 153.6-204.8 182.857-21.943 7.314-36.571 0-36.571-21.943s14.629-21.943 29.257-29.257z" />
<glyph unicode="&#xe612;" glyph-name="calendar" data-tags="calendar" d="M1024 645.486c0 36.571 0 73.143 0 109.714 0 29.257-21.943 58.514-51.2 58.514-36.571 0-73.143 0-102.4 0 0 0 0 0 0 0s0-7.314 0-14.629c0-21.943 0-36.571 0-58.514s-21.943-43.886-51.2-43.886c-21.943 0-43.886 14.629-43.886 43.886 0 7.314 0 21.943 0 29.257 0 14.629 0 29.257 0 43.886-43.886 0-80.457 0-109.714 0 0-7.314 0-14.629 0-21.943 0-14.629 0-36.571 0-51.2 0-21.943-21.943-43.886-51.2-43.886-21.943 0-43.886 21.943-51.2 43.886 0 21.943 0 36.571 0 58.514 0 7.314 0 7.314 0 14.629-29.257 0-65.829 0-102.4 0 0-7.314 0-7.314 0-14.629 0-21.943 0-36.571 0-58.514s-21.943-36.571-43.886-43.886c-21.943 0-43.886 14.629-51.2 36.571 0 7.314 0 14.629 0 21.943 0 21.943 0 36.571 0 58.514-36.571 0-73.143 0-102.4 0 0-7.314 0-7.314 0-14.629 0-21.943 0-36.571 0-58.514s-14.629-29.257-29.257-36.571c-14.629-7.314-36.571 0-51.2 7.314s-21.943 21.943-21.943 36.571c0 21.943 0 36.571 0 58.514-36.571 0-73.143 0-109.714 0-21.943 7.314-43.886-14.629-51.2-43.886 0-7.314 0-21.943 0-29.257 0-212.114 0-424.229 0-636.343 0-43.886 29.257-73.143 73.143-73.143 197.486 0 394.971 0 585.143 0 51.2 0 102.4 0 146.286 0 0 0 0 0 7.314 0v0h7.314c14.629 0 21.943 7.314 36.571 21.943 43.886 43.886 95.086 95.086 138.971 138.971 14.629 14.629 21.943 36.571 21.943 58.514 7.314 131.657 7.314 263.314 7.314 402.286zM980.114 623.543c14.629 0 14.629 0 14.629-14.629 0-36.571 0-73.143 0-109.714h-168.229v124.343c51.2 0 102.4 0 153.6 0zM416.914 206.629v138.971h190.171v-138.971h-190.171zM614.4 192v-138.971c-65.829 0-131.657 0-190.171 0v138.971h190.171zM409.6 352.914h-190.171v138.971h190.171v-138.971zM416.914 491.886h190.171v-138.971h-190.171v138.971zM204.8 352.914h-175.543c0 43.886 0 95.086 0 138.971h175.543v-138.971zM204.8 345.6v-138.971h-175.543c0 43.886 0 95.086 0 138.971h175.543zM219.429 345.6h190.171v-138.971h-190.171v138.971zM621.714 345.6h190.171v-138.971h-190.171v138.971zM621.714 352.914v138.971h190.171v-138.971h-190.171zM826.514 491.886h168.229c0-43.886 0-95.086 0-138.971h-168.229v138.971zM819.2 623.543v-124.343h-197.486v124.343c65.829 0 131.657 0 197.486 0zM512 623.543c36.571 0 65.829 0 102.4 0v-124.343h-197.486v124.343c36.571 0 65.829 0 95.086 0zM409.6 623.543v-124.343h-190.171v124.343c58.514 0 124.343 0 190.171 0zM43.886 623.543c51.2 0 109.714 0 160.914 0v-124.343h-175.543c0 36.571 0 73.143 0 109.714 0 14.629 7.314 14.629 14.629 14.629zM29.257 96.914c0 29.257 0 65.829 0 95.086h175.543v-138.971c-43.886 0-87.771 0-131.657 0-29.257 0-43.886 14.629-43.886 43.886zM219.429 53.029v138.971h190.171v-138.971c-43.886 0-95.086 0-138.971 0-14.629 0-36.571 0-51.2 0zM804.571 53.029c-58.514 0-124.343 0-182.857 0v138.971h190.171v-131.657c0 0 0-7.314-7.314-7.314zM980.114 235.886c-29.257 0-65.829 0-95.086 0-21.943 0-43.886-7.314-58.514-29.257v0 138.971h168.229c0-29.257 0-65.829 0-95.086 0-14.629 0-14.629-14.629-14.629zM402.286 747.886c0 36.571 0 73.143 0 109.714 0 7.314 7.314 14.629 14.629 14.629s14.629-7.314 14.629-14.629c0-14.629 0-36.571 0-51.2 0 0 0 0 0 0 0-14.629 0-36.571 0-51.2 0-7.314 0-7.314 0-14.629-7.314-7.314-14.629-7.314-21.943-7.314s-7.314 7.314-7.314 14.629zM197.486 747.886c0 14.629 0 36.571 0 51.2s0 36.571 0 51.2c0 14.629 7.314 14.629 14.629 14.629s14.629-7.314 14.629-14.629c0-36.571 0-65.829 0-102.4 0-7.314-7.314-14.629-14.629-14.629s-14.629 7.314-14.629 14.629zM599.771 747.886c0 36.571 0 73.143 0 109.714 0 7.314 7.314 14.629 14.629 14.629s14.629-7.314 14.629-14.629c0-14.629 0-36.571 0-51.2s0-36.571 0-51.2c0-7.314 0-7.314 0-14.629-7.314 0-14.629-7.314-21.943-7.314s-7.314 7.314-7.314 14.629zM804.571 806.4c0 0 0 0 0 0 0 14.629 0 36.571 0 51.2s7.314 14.629 14.629 14.629c7.314 0 14.629-7.314 14.629-14.629 0-36.571 0-73.143 0-102.4 0-7.314-7.314-21.943-14.629-21.943-14.629 0-14.629 7.314-14.629 14.629-7.314 21.943 0 36.571 0 58.514z" />
<glyph unicode="&#xe613;" glyph-name="camera" data-tags="camera" horiz-adv-x="1092" d="M773.339 816.494v97.792h-454.949v-97.792h-318.464v-834.779h1091.803v834.779h-318.391zM545.865 115.931c-156.965 0-282.039 127.342-282.039 282.039 0 156.965 127.342 282.039 282.039 282.039s282.039-125.074 282.039-282.039-127.342-282.039-282.039-282.039zM736.914 400.238c0-104.594-86.455-191.049-191.049-191.049-106.935 0-191.049 86.455-191.049 191.049s84.114 191.049 191.049 191.049 191.049-86.455 191.049-191.049z" />
<glyph unicode="&#xe614;" glyph-name="change-passcode" data-tags="change-passcode" d="M838.946 315.611c-42.42 0-77.531 35.107-77.531 77.531s35.111 77.531 77.531 77.531c43.156 0 77.536-35.107 77.536-77.531s-34.379-77.531-77.536-77.531zM531.75 393.143c0-42.424 35.107-77.531 78.264-77.531 42.42 0 77.531 35.107 77.531 77.531s-35.111 77.531-77.531 77.531c-43.156 0-78.264-35.107-78.264-77.531zM640 605.259c19.018 19.013 34.375 37.299 51.933 54.125 5.849 5.849 11.701 10.969 18.286 16.089 11.701 11.705 14.625 26.331 8.045 39.5-1.464 3.656-4.389 8.045-8.045 11.701-40.96 35.839-81.92 77.531-118.491 118.491-7.317 7.317-16.094 11.705-25.603 11.705-8.777 0-17.554-4.389-25.599-11.705-25.603-25.599-46.080-46.812-66.562-67.29-3.513-3.549-5.121-5.121-5.121-5.121 1.464-1.464 2.929-2.924 4.389-4.389 53.397-53.393 106.058-106.058 160.183-160.915l4.504-3.958 2.082 1.766zM380.344 315.611c43.152 0 77.531 35.107 77.531 77.531 0 2.196 0 3.656-0.732 5.853-27.794-27.794-55.589-55.589-83.384-82.651 2.196-0.733 4.388-0.733 6.584-0.733zM62.17 361.692c1.464-1.464 3.661-3.656 5.121-5.121 49.736-49.004 103.134-103.129 156.526-156.526 0.732-0.732 2.196-2.192 2.924-2.924 41.692 41.692 84.116 83.384 125.808 124.344 32.915 32.911 66.558 65.826 99.474 98.741 53.393 53.393 107.522 106.79 160.915 162.379-0.732 0.728-0.732 0.728-1.464 1.46-51.201 51.201-106.058 106.058-160.915 160.915-0.728 0.732-1.46 1.464-2.192 2.196-10.973-10.973-21.21-21.214-32.183-32.183-18.286-18.286-37.304-37.304-55.589-55.589-99.474-99.474-198.947-198.219-298.424-297.692zM977.92 714.974h-239.906c4.389-18.286-0.732-38.036-16.094-54.129-0.732-0.728-0.732-0.728-1.464-1.46h2.929l236.25 2.192c0 0 8.045 0 8.045-8.045l-0.732-513.464c0 0 0-7.313-7.313-7.313h-850.651c-1.464 0-3.656-0.732-5.121-0.732-1.46-1.464-3.656-3.656-3.656-8.045v-40.228c0-7.317 7.313-7.317 15.361-7.317h869.665c23.406 0 38.768 15.361 38.768 38.036v562.469c0 22.675-15.361 38.037-46.080 38.037zM8.045 415.085l40.96 1.464c0 0 6.585 0 6.585 7.313v228.937c0 0 0 6.585 8.045 6.585h270.629l55.589 55.589h-351.085c-23.406 0-38.768-15.361-38.768-38.036v-254.536c-0.001 0-0.001-7.317 8.044-7.317zM201.143 166.402c-56.321 56.317-112.639 113.371-169.692 169.688-5.853-32.911-10.969-66.558-16.089-100.206-5.121-29.254-10.241-59.246-14.629-89.964 0 0 0-0.732 0-1.464 0 0-0.732-0.728-0.732-2.192v-0.732c0-2.924 2.196-5.853 10.973-5.853 58.514 9.509 121.415 19.018 179.929 29.259 3.656 0.001 6.585 0.733 10.241 1.465z" />
<glyph unicode="&#xe615;" glyph-name="add" data-tags="add" d="M986.405 485.595h-436.882v436.882c0.073 18.725-18.725 37.522-37.522 37.522s-37.595-18.798-37.595-37.595v-436.809h-436.882c-18.725 0-37.522-18.798-37.522-37.595s18.798-37.595 37.595-37.595h436.809v-436.809c0-18.798 18.798-37.595 37.595-37.595 23.479 0 37.595 18.798 37.595 37.595v436.882h436.809c23.479-0.073 37.595 18.725 37.595 37.522s-18.798 37.595-37.595 37.595z" />
<glyph unicode="&#xe616;" glyph-name="minus" data-tags="minus" d="M986.405 410.405h-948.809c-18.798 0-37.595 18.798-37.595 37.595s18.798 37.595 37.595 37.595h948.809c18.798 0 37.595-18.798 37.595-37.595s-14.117-37.595-37.595-37.595z" />
<glyph unicode="&#xe617;" glyph-name="check" data-tags="check" d="M300.743 256.451l-196.982 197.813c-8.379 8.415-22.018 8.359-30.328-0.125l-67.692-69.112c-7.712-7.875-7.647-20.491 0.147-28.286l301.353-301.351c8.956-8.958 23.477-8.958 32.435 0l677.301 677.373c9.393 9.395 9.359 24.636-0.078 33.987l-75.924 75.241c-7.194 7.129-18.793 7.112-25.964-0.036l-587.424-585.554c-7.423-7.404-19.446-7.382-26.843 0.050z" />
<glyph unicode="&#xe618;" glyph-name="cancel" data-tags="cancel" horiz-adv-x="1026" d="M583.022 448l426.423 426.423c25.819 19.383 19.383 51.712 0 71.095s-51.712 19.383-71.095 0l-426.423-426.423-426.35 426.423c-19.383 19.383-51.712 19.383-71.095 0s-19.383-51.712 0-71.095l426.423-426.423-426.35-426.35c-19.383-19.383-19.383-51.712 0-71.095s51.712-19.383 71.095 0l426.35 426.35 426.423-426.423c19.383-19.383 51.712-19.383 71.095 0 25.819 19.383 19.383 51.712 0 71.095l-426.496 426.423z" />
<glyph unicode="&#xe619;" glyph-name="checklist" data-tags="checklist" d="M0 769.829c0 0 0 0 0 0 0 14.629 7.314 29.257 14.629 36.571 7.314 0 14.629 7.314 21.943 7.314s14.629-7.314 21.943-14.629 29.257-21.943 43.886-36.571c21.943 21.943 43.886 51.2 65.829 80.457 7.314 7.314 14.629 21.943 29.257 21.943 7.314 7.314 21.943 7.314 36.571 7.314s21.943-14.629 21.943-21.943c0-14.629-7.314-21.943-14.629-29.257-36.571-43.886-73.143-80.457-102.4-117.029-7.314-7.314-21.943-21.943-36.571-21.943s-29.257 14.629-36.571 29.257c-21.943 14.629-36.571 29.257-58.514 51.2 0 0-7.314 7.314-7.314 7.314zM29.257 426.057c14.629-14.629 29.257-21.943 36.571-36.571 21.943-21.943 43.886-21.943 58.514 0 29.257 36.571 65.829 73.143 102.4 109.714 29.257 21.943 43.886 43.886 21.943 58.514-14.629 21.943-36.571 7.314-51.2-7.314-29.257-36.571-65.829-65.829-87.771-95.086-14.629 14.629-36.571 29.257-58.514 43.886 0 7.314-7.314 7.314-21.943 7.314-14.629-7.314-14.629-14.629-21.943-21.943-14.629-7.314-7.314-29.257 7.314-36.571 0-7.314 7.314-14.629 14.629-21.943zM972.8 857.6h-541.257c-29.257 0-58.514-21.943-58.514-58.514v-14.629c7.314-21.943 29.257-43.886 58.514-43.886h533.943c36.571 0 58.514 14.629 58.514 43.886v21.943c7.314 29.257-21.943 51.2-51.2 51.2zM972.8 535.771h-541.257c-29.257 0-58.514-21.943-58.514-58.514v-14.629c0-29.257 21.943-58.514 58.514-58.514h533.943c29.257 0 58.514 21.943 58.514 51.2v21.943c7.314 36.571-21.943 58.514-51.2 58.514zM972.8 213.943h-541.257c-29.257 0-58.514-21.943-58.514-58.514v-21.943c0-29.257 21.943-58.514 58.514-58.514h533.943c29.257 0 58.514 21.943 58.514 58.514v21.943c7.314 36.571-21.943 58.514-51.2 58.514zM270.629 155.429c0-73.143-58.514-131.657-131.657-131.657s-138.971 58.514-138.971 131.657 58.514 131.657 131.657 131.657 138.971-58.514 138.971-131.657zM204.8 155.429c0 43.886-29.257 73.143-73.143 73.143s-73.143-29.257-73.143-73.143 29.257-73.143 73.143-73.143c43.886-7.314 73.143 29.257 73.143 73.143z" />
<glyph unicode="&#xe61a;" glyph-name="circle" data-tags="circle" d="M1024 448c0-282.77-229.23-512-512-512s-512 229.23-512 512c0 282.77 229.23 512 512 512s512-229.23 512-512z" />
<glyph unicode="&#xe61b;" glyph-name="clear" data-tags="clear" horiz-adv-x="1068" d="M667.794 597.65l-253.44-275.675c0 0 175.616-266.752 197.851-322.341l71.168 42.203c0 0-51.127 97.792-80.018 122.295 0 0-26.697 37.815 20.041 24.43 0 0 106.715-88.942 122.295-97.792l71.168 64.439c0 0-8.923 22.235-24.43 40.009l-84.626 95.671c0 0-15.579 31.159 17.774 20.041 0 0 88.942-71.168 148.919-91.136l55.589 75.557c0 0-104.448 100.059-111.177 117.833 0 0-17.774 15.579 8.923 20.041 0 0 106.715-73.362 144.53-68.901 0 0 33.353 62.245 31.159 66.706 0-2.341-286.793 133.266-335.726 166.619zM658.944 677.669c97.792-86.674 360.155-188.928 360.155-188.928 73.362-17.774 42.203-77.824 42.203-77.824-126.683-300.105-426.862-464.603-426.862-464.603-53.321-37.815-77.824 42.203-77.824 42.203-62.245 122.295-215.625 335.653-215.625 335.653l317.952 353.499zM63.122 960c4.462 0 8.923-2.194 13.312-4.462l291.255-264.558c2.194-2.194 4.462-6.656 4.462-8.923l64.439 71.168c53.321 31.159 100.059 4.462 100.059 4.462l75.557-55.589-308.955-335.653-53.394 73.362c-33.353 68.901 4.462 113.371 4.462 113.371l53.321 60.050c-4.462 0-6.656 2.194-11.118 4.462l-291.255 264.558c-6.656 6.656-6.656 17.774-2.194 24.43l44.471 48.933c6.656 2.194 11.118 4.389 15.579 4.389z" />
<glyph unicode="&#xe61c;" glyph-name="clear-passcode" data-tags="clear-passcode" d="M851.983 315.611c-42.424 0-77.531 35.107-77.531 77.531s35.107 77.531 77.531 77.531c43.156 0 77.531-35.107 77.531-77.531s-34.376-77.531-77.531-77.531zM505.286 91.063c-8.045-5.121-14.629-10.241-21.21-14.629-8.049-5.121-14.629-9.509-19.018-12.433-5.853-2.924-8.777-5.121-8.777-5.121-6.585-5.121-12.437-6.581-18.286-6.581-2.196 0-5.121 0-7.317 0.728-10.241 3.661-17.554 15.361-21.21 23.406-3.656 5.853-5.121 10.973-5.121 10.973-6.585 13.165-14.629 27.794-24.139 43.152-46.812 80.46-119.223 181.397-128.732 195.294l73.875 81.92v0.732l53.397 58.514 96.545 107.518h0.732c35.111-31.451 97.281-63.634 152.871-89.232 54.857-25.603 100.937-43.889 101.669-43.889 16.089-4.389 26.331-10.969 30.719-20.478 6.581-15.361-1.464-31.451-2.196-31.451-48.272-115.567-133.121-202.607-201.143-258.196-19.013-16.089-36.571-29.254-51.929-40.228h-0.731zM495.777 123.978l-0.732 2.192c0 0.732-1.464 2.196-2.924 5.121h-0.732c-0.732 0.732-1.464 2.196-2.196 3.656-10.236 19.75-35.839 64.366-51.929 78.996-3.656 3.656-6.585 10.973-4.389 13.165 0 0.732 1.46 2.196 5.121 2.196 2.192 0 5.849-0.732 10.236-2.196 7.317-5.849 76.804-63.634 87.772-70.214l1.464-0.732 52.661 49.004v1.464c-0.732 0-7.313 16.089-18.286 29.254l-59.978 68.027c-1.46 2.924-2.924 8.777-1.46 10.969 0.732 0.732 1.46 0.732 2.924 0.732s3.656 0 7.317-1.464c6.581-4.389 65.826-51.201 107.518-64.366l1.464-0.728 40.228 54.857 1.464 1.46-1.464 1.464c-5.121 5.121-10.241 10.241-16.094 16.089-27.794 27.794-59.246 59.978-62.902 68.022v0.732c-1.464 0.732-3.656 3.661-2.924 5.121 0 2.196 2.192 3.656 7.313 4.389 7.317-5.121 59.978-40.96 91.429-47.54 3.656-0.732 6.585-1.464 9.509-1.464 0.732 0 1.464 0 2.196 0h1.46l0.732 1.464c16.821 31.451 21.214 42.42 21.942 47.54v0.732c0.732 0.732 0 1.464 0 1.464l-4.389 2.192c-4.389 2.196-13.165 5.853-24.134 10.973 0 0.732-0.732 0.732-0.732 0.732-24.871 11.701-62.902 29.986-100.206 48.272-5.853 2.929-12.437 5.853-18.286 8.777-2.196 0.732-2.929 1.464-4.389 1.464-2.196 1.464-3.661 2.192-6.585 3.656-3.656 2.196-6.581 3.656-10.973 5.121-32.178 16.821-59.973 31.451-70.214 38.768l-2.196 0.728-53.391-57.782-128.732-140.433-0.732-1.464 0.732-1.464c1.464-1.46 81.92-124.339 121.419-192.366 9.509-16.089 16.821-29.254 19.746-36.571l0.732-2.924 55.589 32.915zM977.791 714.974h-550.768l-0.732 1.46-0.732-1.46h-289.643l2.924-2.929 34.379-31.451 22.674-20.478h229.665l-34.375-0.732h332.067l236.254 2.192c0 0 8.045 0 8.045-8.045l-0.732-513.464c0 0 0-7.313-7.313-7.313l-388.393-1.464c-22.674-19.018-43.152-34.375-60.706-46.808-0.732-0.732-1.464-0.732-2.196-0.732-3.656-2.196-6.581-5.121-9.509-7.317h486.401c23.406 0 38.764 15.361 38.764 38.036v562.469c0 22.674-15.357 38.036-46.076 38.036zM105.193 393.143c0-42.424 35.111-77.531 77.531-77.531 21.214 0 40.96 8.777 54.857 22.674 13.169 13.165 21.947 31.451 22.674 51.201l-32.911-35.111c-1.465-1.46-3.662-2.192-5.854-2.192-2.924 0-5.121 1.464-5.853 2.924l-37.304 51.201c-13.165 26.331-12.433 48.276-8.045 62.902-36.571-5.849-65.097-38.031-65.097-76.067zM397.036 84.482c-7.317 13.893-15.361 29.254-25.603 46.076l-189.438-0.728h-117.764c0 0-8.045 0-8.045 8.045l0.733 310.125c-0.732 0-0.732 0-1.464 0v204.799c0 0 0 6.585 8.049 6.585h8.777l-54.129 49.736c-11.701-5.121-18.286-16.821-18.286-32.183v-562.469c0-22.674 15.361-38.036 46.080-38.036h65.83c1.464 0 2.192 0 3.656 0h284.526c-0.732 2.929-2.196 5.121-2.924 7.317 0.001 0 0.001 0 0.001 0.732zM25.469 712.777l57.781-52.661 1.464-0.732 138.969-126.54 2.929-2.192-38.036-43.156c-0.732-0.728-5.853-6.581-8.777-16.821-5.121-13.897-7.313-34.375 5.853-60.71l35.839-49.736 38.036 40.96 163.107 177.009 10.973 11.701 3.656 5.121-50.469 38.036c-1.464 0.728-14.629 7.313-32.183 7.313-10.973 0-23.406-2.924-36.571-10.241l-45.349-49.736-2.196 1.464-102.397 92.889-35.111 31.455-9.509 8.777-65.093 59.246c-2.929 0.728-5.853 2.192-8.049 2.192-2.192 0-4.389-0.732-7.313-1.464-0.732 0-1.464-0.728-2.924-0.728l-30.723-34.379c-2.192-3.656-2.192-9.509 1.464-13.897l14.629-13.166z" />
<glyph unicode="&#xe61d;" glyph-name="clock" data-tags="clock" d="M512 960c-283.723 0-512-228.277-512-512 0-283.719 228.277-512 512-512s512 228.281 512 512c0 283.723-228.277 512-512 512zM512 0c-247.442 0-448 200.558-448 448 0 247.447 200.558 448 448 448s448-200.553 448-448c0-247.442-200.558-448-448-448zM753.536 445.692c0-15.848-12.965-28.812-28.812-28.812h-173.205c-9.737-13.152-25.089-22.197-41.638-22.197-29.844 0-53.321 23.477-53.321 53.317 0 21.442 11.053 38.772 29.165 46.616v232.468c0 15.843 12.965 28.808 28.812 28.808s28.812-12.965 28.812-28.808v-236.687c5.996-4.495 10.843-9.777 14.389-15.898h166.987c15.847 0.001 28.812-12.964 28.812-28.807z" />
<glyph unicode="&#xe61e;" glyph-name="cloud" data-tags="cloud" horiz-adv-x="1209" d="M989.403 530.359c-0.219 0-0.366 0-0.658 0-9.728 153.819-137.655 275.602-293.888 275.602-144.238 0-264.192-103.643-289.646-240.421-3.218 0.073-6.656 0.219-9.947 0.219-107.447 0-198.071-71.168-227.694-168.887-4.535 0.366-9.143 0.658-13.824 0.658-84.846 0-153.746-68.754-153.746-153.746s68.754-153.746 153.6-153.746c1.243 0 835.657 0 835.657 0 121.637 0 220.087 98.597 220.087 220.087s-98.304 220.233-219.941 220.233z" />
<glyph unicode="&#xe61f;" glyph-name="ring" data-tags="ring" d="M512 901.486c248.686 0 453.486-204.8 453.486-453.486s-204.8-453.486-453.486-453.486-453.486 204.8-453.486 453.486 204.8 453.486 453.486 453.486zM512 960c-285.257 0-512-226.743-512-512s226.743-512 512-512 512 226.743 512 512-226.743 512-512 512v0z" />
<glyph unicode="&#xe620;" glyph-name="contact" data-tags="contact" d="M935.717 89.819h-847.433c-48.713 0-88.283 39.643-88.283 88.283v539.794c0 48.713 39.57 88.283 88.283 88.283h847.433c48.713 0 88.283-39.643 88.283-88.283v-539.794c0-48.64-39.57-88.283-88.283-88.283zM88.283 770.853c-29.184 0-52.955-23.771-52.955-52.955v-539.794c0-29.184 23.771-52.955 52.955-52.955h847.433c29.184 0 52.955 23.771 52.955 52.955v539.794c0 29.184-23.771 52.955-52.955 52.955h-847.433zM480.037 408.43c-3.218-6.437-3.584-14.702-0.951-22.089 1.536-4.242 5.12-9.655 11.41-13.239h381.879v36.571h-391.826c-0.219-0.439-0.293-0.805-0.512-1.243zM637.659 293.449c5.12-7.534 11.118-18.651 16.677-31.086h218.112v36.571h-240.128c1.755-1.829 3.803-3.584 5.339-5.486zM517.851 631.15c2.194-10.679 3.657-21.723 3.657-33.207v-3.365h350.939v36.571h-354.597zM513.463 488.521c-1.243-1.609-1.829-3.145-2.706-4.681h361.691v36.571h-343.479c-2.999-11.191-7.607-22.089-15.506-31.89zM379.611 710.802c56.466 0 105.326-45.129 105.326-112.859 0-7.534 0-15.067 0-22.601 15.067-22.601 15.067-45.129 0-64-3.73-3.73-7.534-11.264-11.264-18.798-7.534-22.601-15.067-45.129-26.331-67.73-15.067-30.062-3.803-71.461 30.062-86.528 22.601-11.264 45.129-18.798 67.73-26.331s48.933-22.601 64-41.399c7.534-11.264 15.067-26.331 18.798-41.399 0-11.264 3.73-22.601-3.73-33.865-7.534-18.798-33.865-11.264-48.933-11.264s-26.331 0-41.399 0-56.466 0-82.798 0c-22.601 0-48.933 0-71.461 0v0c-22.601 0-48.933 0-71.461 0-26.331 0-56.466 0-82.798 0-15.067 0-26.331 0-41.399 0s-41.399-7.534-48.933 11.264c-7.534 11.264-3.73 22.601-3.73 33.865 3.73 15.067 11.191 30.135 18.725 41.399 15.067 18.798 41.399 33.865 64 41.399s45.129 15.067 67.73 26.331c33.865 15.067 45.129 56.466 30.135 86.528-11.337 22.601-18.871 45.129-26.405 67.73-3.73 7.534-7.461 15.067-11.264 18.798-15.067 18.798-15.067 41.399 0 64 0 7.534 0 15.067 0 22.601 0 71.461 48.933 116.59 105.399 112.859v0z" />
<glyph unicode="&#xe621;" glyph-name="copy" data-tags="copy" d="M913.753 909.547v-822.19c0-27.824-22.63-50.453-50.453-50.453h-46.714v56.061h41.109v810.978h-521.344v-26.161h-56.058v31.766c0 27.824 22.63 50.453 50.453 50.453h532.554c27.824-0.001 50.453-22.63 50.453-50.454zM797.897 808.643v-822.192c0-27.824-22.63-50.453-50.453-50.453h-586.743c-27.824 0-50.453 22.63-50.453 50.453v822.19c0 27.824 22.63 50.453 50.453 50.453h586.745c27.823 0.001 50.452-22.628 50.452-50.452zM741.839 111.65v691.387h-575.535v-810.978h575.533v119.591zM654.638 677.84h-398.016c-12.333 0-22.424-10.092-22.424-22.424v-4.982c0-12.333 10.092-22.424 22.424-22.424h398.016c12.333 0 22.422 10.092 22.422 22.424v4.982c0 12.333-10.089 22.424-22.422 22.424zM654.638 547.036h-398.016c-12.333 0-22.424-10.089-22.424-22.422v-4.985c0-12.333 10.092-22.422 22.424-22.422h398.016c12.333 0 22.422 10.089 22.422 22.422v4.985c0 12.333-10.089 22.422-22.422 22.422zM654.638 421.217h-398.016c-12.333 0-22.424-10.092-22.424-22.424v-4.982c0-12.333 10.092-22.424 22.424-22.424h398.016c12.333 0 22.422 10.092 22.422 22.424v4.982c0 12.333-10.089 22.424-22.422 22.424zM654.638 294.152h-398.016c-12.333 0-22.424-10.092-22.424-22.424v-4.982c0-12.335 10.092-22.424 22.424-22.424h398.016c12.333 0 22.422 10.089 22.422 22.424v4.982c0 12.333-10.089 22.424-22.422 22.424zM654.638 158.366h-398.016c-12.333 0-22.424-10.092-22.424-22.424v-4.985c0-12.333 10.092-22.422 22.424-22.422h398.016c12.333 0 22.422 10.089 22.422 22.422v4.985c0 12.333-10.089 22.424-22.422 22.424z" />
<glyph unicode="&#xe622;" glyph-name="dashboard" data-tags="dashboard" d="M785.481 878.080c-58.368-43.739-116.736-87.552-167.79-131.291-21.87-14.555-36.498-21.87-65.682-7.314-226.158 102.107-488.814-43.739-525.312-291.84-7.314-51.054 0-109.422 14.555-160.475 0-14.555 0-14.555-7.314-21.87-65.682 145.92-43.739 386.633 131.291 547.182 175.25 175.031 437.906 182.345 620.251 65.609zM508.27 309.029c72.923 0 138.606 65.682 138.606 138.606 0 7.314 7.314 21.87 7.314 29.184 72.923 94.866 153.234 196.974 226.158 291.84 7.314 7.314 7.314 7.314 14.555 14.555 14.555 14.555 14.555 36.498 0 51.054s-36.498 14.555-51.054 0l-7.314-7.314c-102.107-80.238-204.288-160.475-299.154-233.472-7.314-7.314-21.87-14.555-29.184-14.555-72.923 0-131.291-58.368-131.291-131.291s58.368-138.606 131.365-138.606zM449.902 447.634c0 36.498 29.184 58.368 58.368 65.682 36.498 0 58.368-29.184 65.682-58.368 0-36.498-29.184-58.368-58.368-65.682-36.498-7.241-65.682 21.943-65.682 58.368zM223.744 163.109c-14.555-14.555-21.87-29.184-36.498-36.498-14.555-14.555-29.184-21.87-43.739-36.498 204.288-211.602 547.182-189.659 722.286 0-21.87 21.87-51.054 51.054-72.923 72.923-153.307-153.088-415.963-153.088-569.125 0.073zM938.715 717.605c-51.054-72.923-109.422-138.606-160.475-211.602 0-7.314 0-14.555 0-14.555 7.314-36.498 7.314-65.682 14.555-102.107 0-7.314 0-14.555 14.555-14.555 65.682-14.555 124.050-36.498 189.659-51.054 7.314 0 7.314 0 14.555-7.314 29.257 145.847 7.387 277.138-72.85 401.189v0z" />
<glyph unicode="&#xe623;" glyph-name="database" data-tags="database" d="M512 960c95.086 0 190.171-14.629 285.257-43.886 43.886-14.629 95.086-36.571 124.343-73.143 21.943-21.943 36.571-36.571 36.571-65.829 7.314-29.257-7.314-58.514-21.943-80.457-21.943-29.257-51.2-51.2-80.457-65.829-65.829-36.571-131.657-51.2-197.486-58.514-95.086-14.629-182.857-14.629-277.943 0-73.143 7.314-146.286 29.257-204.8 58.514-36.571 14.629-65.829 36.571-87.771 65.829-29.257 43.886-29.257 87.771 0 131.657 29.257 36.571 65.829 58.514 109.714 80.457 65.829 29.257 131.657 43.886 204.8 51.2 36.571-7.314 73.143 0 109.714 0zM936.229 638.171c-29.257-36.571-73.143-58.514-117.029-80.457-58.514-21.943-124.343-36.571-197.486-51.2-95.086-7.314-197.486-7.314-292.571 14.629-65.829 14.629-131.657 29.257-182.857 65.829-36.571 21.943-73.143 51.2-80.457 102.4 0-51.2 0-95.086 0-146.286 0-14.629 7.314-29.257 7.314-36.571 14.629-29.257 43.886-51.2 73.143-73.143 43.886-29.257 95.086-43.886 153.6-58.514 80.457-21.943 160.914-29.257 248.686-21.943 87.771 0 168.229 14.629 248.686 43.886 51.2 14.629 95.086 36.571 131.657 73.143 21.943 21.943 36.571 51.2 36.571 80.457 0 43.886 0 87.771 0 131.657-14.629-14.629-21.943-29.257-29.257-43.886zM936.229 433.371c-21.943-29.257-51.2-51.2-80.457-65.829-80.457-43.886-168.229-58.514-256-65.829-65.829-7.314-131.657-7.314-190.171 0-73.143 7.314-138.971 21.943-204.8 51.2-36.571 14.629-58.514 29.257-87.771 43.886-21.943 21.943-43.886 51.2-51.2 80.457 0-36.571 0-65.829 0-95.086 0-14.629 0-29.257 0-43.886 7.314-36.571 29.257-65.829 58.514-87.771 43.886-36.571 87.771-51.2 138.971-65.829 102.4-29.257 204.8-36.571 307.2-29.257 80.457 7.314 153.6 14.629 226.743 43.886 43.886 14.629 95.086 36.571 124.343 73.143 21.943 21.943 36.571 43.886 36.571 80.457 0 43.886 0 87.771 0 131.657-7.314-21.943-14.629-43.886-21.943-51.2zM65.829 133.486c0-7.314 0-14.629 0-21.943 7.314-29.257 29.257-58.514 58.514-73.143 43.886-36.571 95.086-51.2 146.286-65.829 73.143-21.943 153.6-29.257 234.057-29.257 102.4 0 197.486 7.314 292.571 43.886 51.2 14.629 95.086 36.571 131.657 73.143 21.943 21.943 36.571 43.886 36.571 73.143 0 43.886 0 95.086 0 138.971-7.314-14.629-14.629-29.257-21.943-43.886-29.257-36.571-73.143-58.514-117.029-80.457-65.829-29.257-131.657-43.886-197.486-51.2-95.086-7.314-197.486-7.314-292.571 14.629-65.829 14.629-131.657 29.257-182.857 65.829-43.886 21.943-80.457 51.2-87.771 95.086 0-51.2 0-95.086 0-138.971z" />
<glyph unicode="&#xe624;" glyph-name="delete" data-tags="delete" horiz-adv-x="899" d="M543.744 517.047v-486.693h118.345v486.693h-118.345zM237.568 517.047v-486.693h118.345v486.693h-118.345zM64.585 601.088h770.487v-665.088h-770.487v665.088zM255.634 960h387.584v-123.465h255.561v-132.462h-898.779v132.462h255.634v123.465z" />
<glyph unicode="&#xe625;" glyph-name="deploy" data-tags="deploy" d="M387.657 111.543c-14.629 7.314-29.257 7.314-36.571 0s-21.943-7.314-29.257-14.629c-7.314-7.314-21.943-7.314-29.257 0-21.943 14.629-43.886 29.257-65.829 51.2s-36.571 43.886-58.514 65.829c-7.314 7.314-7.314 21.943 0 36.571s14.629 29.257 21.943 43.886c0 0 0 7.314 0 7.314 0 14.629 0 14.629-21.943 21.943-43.886 7.314-87.771 14.629-124.343 29.257-14.629 0-14.629 7.314-7.314 14.629 29.257 36.571 58.514 73.143 87.771 109.714 7.314 7.314 7.314 7.314 21.943 7.314 51.2 0 102.4 0 160.914 0 7.314 0 14.629 0 14.629 7.314 80.457 95.086 153.6 190.171 241.371 277.943 58.514 65.829 131.657 109.714 219.429 146.286 73.143 29.257 153.6 43.886 234.057 43.886 0 0 7.314 0 14.629 0 0-14.629 0-21.943 0-29.257-7.314-87.771-21.943-168.229-58.514-241.371-29.257-73.143-73.143-131.657-131.657-190.171-87.771-87.771-182.857-168.229-285.257-248.686 0 0-7.314-7.314-7.314-14.629 0-51.2 0-109.714 0-160.914 0-7.314 0-14.629-7.314-21.943-36.571-29.257-73.143-58.514-109.714-87.771-7.314-7.314-14.629-7.314-14.629 7.314-7.314 43.886-21.943 87.771-29.257 138.971 0 0 0 0 0 0zM716.8 565.029c43.886 0 80.457 36.571 80.457 80.457s-36.571 80.457-80.457 80.457c-43.886 0-80.457-36.571-80.457-80.457s36.571-80.457 80.457-80.457zM270.629 53.029c0 0-7.314 0-7.314 0-58.514-36.571-117.029-51.2-182.857-51.2-7.314 0-7.314 0-7.314 7.314 0 14.629 0 29.257 0 43.886 7.314 43.886 14.629 87.771 43.886 131.657 7.314 14.629 7.314 14.629-7.314 29.257-95.086-73.143-109.714-168.229-109.714-277.943 109.714 0 212.114 14.629 285.257 109.714-7.314 0-14.629 0-14.629 7.314z" />
<glyph unicode="&#xe626;" glyph-name="devices" data-tags="devices" d="M974.587 330.366c-0.025 131.534-0.047 263.042-0.025 394.576 0 28.848-11.456 51.226-37.58 64.545-21.748 11.083-45.078 6.705-68.408 6.774 0-18.511 0-35.509 0-54.227 11.339 0 21.35 0.023 31.364 0 17.603-0.072 19.978-2.447 19.978-20.304 0-157.52 0-315.060 0-472.578 0-28.779-0.047-28.872-29.409-28.872-175.75-0.025-351.5 0-527.25 0-79.538 0-159.078-0.047-238.616 0.047-17.138 0.023-20.77 3.12-20.77 17.509-0.047 162.572-0.023 325.143 0.047 487.712 0 13.063 3.4 16.299 16.672 16.393 16.554 0.116 33.134 0.023 50.085 0.023 0 18.815 0 36.37 0 54.719-16.324 0-31.808 0.047-47.268 0-47.034-0.163-74.208-27.359-74.23-74.672-0.047-193.214-0.025-386.426 0.023-579.638 0-41.19 23.913-64.685 65.243-64.66 10.011 0 20.024 0.023 30.060 0v0.348h306.348v-44.728c0-10.849-8.795-19.643-19.643-19.643h-135.259c-15.368 0-27.942-12.574-27.942-27.942v-21.804c0-15.368 12.574-27.942 27.942-27.942h427c15.366 0 27.94 12.574 27.94 27.942v21.804c0 15.368-12.574 27.942-27.94 27.942h-129.458c-14.054 0-25.446 1.739-25.446 15.792v48.578h222.198c11.946 0 23.891-0.023 35.835-0.047 27.942-0.069 55.859-0.255 83.777-0.652 36.884-0.489 65.522 25.567 64.987 65.616-0.837 62.447-0.255 124.918-0.255 187.389zM512.346 176.527c18.627-0.208 32.902-14.645 32.808-33.203-0.094-19.279-14.506-33.529-33.785-33.413-18.417 0.094-32.761 14.648-32.783 33.25-0.048 19.163 14.528 33.554 33.761 33.366zM577.73 824.016c0.605-102.777 0.255-205.553 0.301-308.33 0.025-33.016 17.183-50.386 50.085-50.502 46.149-0.14 92.322-0.069 138.471 0 31.83 0.023 49.69 17.906 49.712 49.734 0.047 51.576 0.025 103.15 0.025 154.748 0.023 51.971 0.023 103.942 0 155.911 0 31.364-17.511 48.875-48.968 48.922-46.147 0.045-92.322-0.908-138.446 0.301-34.649 0.931-51.343-22.609-51.18-50.783zM696.082 483.578c-12.458 0.58-22.167 11.456-21.56 24.145 0.58 11.991 11.199 21.886 23.027 21.516 12.761-0.397 22.516-10.781 22.121-23.542-0.395-12.643-11.107-22.701-23.587-22.118zM765.75 797.101c6.38 0 12.129 0.745 12.085-9.105-0.326-80.284-0.234-160.567-0.304-240.853 0-0.721-0.373-1.467-0.908-3.468-53.786 0-107.085 0-161.965 0 0 5.261 0 9.803 0 14.344 0 74.857 0.185 149.717-0.21 224.554-0.072 10.756 2.303 14.949 14.016 14.786 45.755-0.655 91.509-0.282 137.286-0.257zM221.386 399.219c0.025-31.085 19.978-52.902 49.571-52.971 112.138-0.304 224.299-0.257 336.435-0.072 23.076 0.047 42.982 15.065 46.942 37.627 2.56 14.46 0.489 29.759 0.489 45.498-4.866 0-9.083 0-13.297 0-116.024 0-232.049-0.023-348.051 0-21.074 0-28.92 7.893-28.92 28.616 0 138.915 0 277.828 0.023 416.743 0 26.125 6.148 32.342 32.11 32.342 114.861 0.047 229.699 0.023 344.56 0.023 4.565 0 9.105 0 13.46 0 3.933 29.245-18.326 52.879-48.897 52.902-110.578 0.116-221.179 0.072-331.755 0.025-32.715-0.025-52.601-20.141-52.692-53.206-0.072-36.462-0.047-72.948-0.025-109.413 0.001-132.721-0.020-265.418 0.048-398.114zM438.931 408.65c12.69-0.094 22.634-10.246 22.562-23.052-0.047-12.878-10.011-22.866-22.772-22.889-12.502 0-22.679 10.359-22.654 23.052 0.022 12.619 10.361 22.957 22.864 22.889z" />
<glyph unicode="&#xe627;" glyph-name="dial-up" data-tags="dial-up" horiz-adv-x="987" d="M470.821 960c3.95 0 7.899 0 11.849-0.073 126.245-2.048 253.513-39.936 351.89-113.225 196.901-146.725 203.776-379.392 15.287-519.826-179.566-133.778-471.771-135.241-669.184-7.973 171.813-107.374 428.251-101.083 589.897 19.383 170.715 127.195 170.715 333.458 0 460.8-170.715 127.195-447.781 127.195-618.496 0-143.433-107.081-165.961-269.605-68.315-394.24 20.626 27.063 41.911 51.2 63.342 72.485-40.302 83.383-17.993 178.322 68.974 243.054 121.783 90.697 323.657 87.552 450.779-7.387 127.342-94.793 131.877-245.248 9.874-335.945-121.783-90.697-323.657-87.552-450.999 7.387 110.373-82.213 289.499-82.213 399.872 0s110.373 215.552 0 297.765-289.499 82.213-399.872 0c-72.777-54.199-97.28-130.853-73.874-200.338 173.495 168.009 360.375 157.257 360.375 157.257 128.658-25.6 114.688-111.689 114.688-111.689l-161.938-101.083c-41.253-0.658-104.375 44.325-104.375 44.325-59.685-14.263-103.497-46.738-136.119-85.138-17.847-21.138-32.183-44.032-43.813-66.706-37.376-73.435-44.91-144.603-44.91-144.603 35.621-43.52 117.906-59.977 117.906-59.977l-11.63-157.038c-44.471-20.187-80.969-23.479-108.91-19.968-45.349 5.778-68.681 29.257-68.681 29.257-150.528 209.481 9.874 425.765 9.874 425.765 2.633 3.511 5.413 7.095 7.973 10.606-124.782 144.018-108.032 333.897 54.784 455.022 91.209 68.023 211.529 101.888 333.751 102.107z" />
<glyph unicode="&#xe628;" glyph-name="document" data-tags="document" d="M919.54 755.563c-0.015-249.308-0.027-498.619-0.096-747.929-0.011-35.381-17.308-61.176-46.629-69.192-6.46-1.766-13.44-2.277-20.181-2.284-206.987-0.14-413.973-0.195-620.96-0.134-40.076 0.011-68.549 28.357-68.777 68.208-0.194 34.388-0.040 68.777-0.040 104.527 10.86 0 28.767 0 39.305 0 0.208-4.335 0.569-8.476 0.578-12.616 0.049-29.417-0.058-50.117 0.056-79.532 0.102-26.533 14.090-40.61 40.516-40.614 205.194-0.045 392.955-0.042 598.149 0 25.022 0.004 38.027 13.681 38.053 40.23 0.098 90.759 0.036 172.802 0.038 263.559 0 198.377 0.004 388.039 0 586.416 0 6.458 0.018 12.915-0.105 19.37-0.422 22.196-11.696 33.584-34.027 34.089-0.355 0.009-0.71 0.009-1.065 0.015-2.774 0-5.531 0-8.275 0-95.69-0.027-496.832 0.002-592.519-0.112-29.993-0.035-40.607-10.85-40.71-40.87-0.069-20.786-0.034-32.856-0.11-53.642-0.013-3.841-0.336-7.681-0.549-12.183-10.281 0-28.441 0-39.372 0 0 13.016-0.002 25.435 0 37.855 0.004 13.978 0.011 27.955 0.015 41.931 0.013 40.241 25.92 66.647 66.426 66.861 56.983 0.299 113.965 0.112 170.949 0.114 31.864 0.002 340.672 0.073 413.422-0.063-0.023 0.094-0.045 0.178-0.069 0.272 1.585-0.127 3.167-0.219 4.752-0.281 3.468-0.009 6.197-0.018 7.993-0.027 0.502-0.002 0.978-0.045 1.469-0.062 19.982 0.295 39.772 2.893 58.516-6.9 22.418-11.714 33.138-30.822 33.156-56.029 0.034-46.994 0.094-93.987 0.090-140.98zM403.538 109.386c-17.034-0.009-24.498-4.828-24.572-15.603-0.072-10.75 7.489-15.643 24.451-15.65 119.047-0.040 238.094-0.060 357.14-0.076 2.507 0 5.029-0.009 7.52 0.241 9.264 0.928 14.665 6.357 14.725 15.391 0.060 9.071-5.337 14.511-14.603 15.44-2.846 0.284-5.732 0.196-8.6 0.196-59.163 0.009-118.328 0.007-177.494 0.007 0 0.023 0 0.045 0 0.067-59.521 0.001-119.046 0.023-178.568-0.013zM763.786 206.247c-1.435 0.042-2.871 0.020-4.304 0.020-114.393 0-228.786 0.009-343.179-0.013-7.886-0.002-15.817 0.248-23.645-0.486-8.826-0.83-13.576-6.774-13.507-15.263 0.069-8.451 4.822-14.1 13.678-15.17 3.54-0.429 7.156-0.328 10.739-0.328 59.17-0.018 118.339-0.011 177.507-0.011 0-0.027 0-0.053 0-0.080 34.426 0 68.851-0.009 103.277 0.002 26.535 0.011 53.074-0.034 79.609 0.11 11.935 0.065 19.163 6.187 19.076 15.639-0.086 9.444-7.229 15.232-19.252 15.582zM766.040 303.022c-2.861 0.138-5.737 0.031-8.605 0.034-81.042 0.027-162.082 0.067-243.125 0.074-39.084 0.002-78.171 0.056-117.258-0.163-12.879-0.072-20.833-9.253-17.461-19.667 3.243-10.018 11.244-11.587 20.598-11.562 59.884 0.165 119.768 0.085 179.652 0.069 23.308-0.015 46.616-0.029 69.926-0.013 38.728 0.027 77.455-0.051 116.181 0.194 10.35 0.067 17.034 6.623 17.055 15.449 0.020 8.821-6.757 15.092-16.963 15.587zM400.198 399.947c-2.859 0-5.797 0.1-8.567-0.478-8.103-1.69-12.574-7.143-12.543-15.16 0.032-7.994 4.443-13.628 12.622-15.036 4.549-0.784 9.29-0.606 13.944-0.606 114.748-0.029 229.495-0.031 344.243 0 6.806 0.002 13.699-0.281 20.393 0.674 8.203 1.167 12.583 7.052 12.545 15.045-0.040 7.959-4.351 13.618-12.609 15.026-3.85 0.656-7.859 0.489-11.797 0.491-59.167 0.025-118.335 0.018-177.502 0.018 0 0.013 0 0.029 0 0.045-60.243 0-120.485 0.004-180.728-0.020zM532.996 692.724c0 0.007 0 0.011-0.002 0.018-5.053 0-9.638 0.002-14.226 0-10.844-0.007-21.688-0.018-32.531-0.025-26.201 0-52.4 0.002-78.599-0.007-0.65 0.002-1.299 0-1.949 0-1.83 0-3.661 0-5.491 0-2.86-0.002-5.797 0.099-8.567-0.48-0.098-0.020-0.181-0.056-0.279-0.078-5.786-0.989-9.686-4.248-11.319-9.247-0.091-0.261-0.17-0.529-0.248-0.797-0.058-0.209-0.1-0.431-0.149-0.645-0.335-1.37-0.554-2.815-0.547-4.39 0.004-1.433 0.201-2.759 0.484-4.029 0.056-0.261 0.114-0.52 0.181-0.775 0.1-0.364 0.197-0.728 0.321-1.074 0.199-0.578 0.442-1.123 0.705-1.652 0.112-0.221 0.225-0.44 0.348-0.654 0.319-0.558 0.674-1.089 1.067-1.587 0.125-0.157 0.255-0.306 0.386-0.458 0.437-0.502 0.906-0.98 1.424-1.418 0.123-0.102 0.255-0.197 0.382-0.297 0.585-0.46 1.206-0.886 1.882-1.261 0.025-0.013 0.049-0.025 0.074-0.038 2.047-1.123 4.495-1.869 7.308-2.196 2.319-0.272 4.681-0.219 7.027-0.21 1.589-0.007 3.179 0.002 4.759 0.004 0.734 0 1.469 0 2.203 0 114.087-0.027 228.172-0.031 342.257 0.002 6.806 0 13.699-0.284 20.393 0.672 8.203 1.17 12.583 7.051 12.545 15.047-0.040 7.957-4.351 13.616-12.609 15.024-3.85 0.656-7.859 0.489-11.797 0.491-59.167 0.027-118.335 0.018-177.502 0.018 0 0.015 0 0.029 0 0.045-15.977 0-31.953-0.004-47.931-0.004zM525.489 789.715c-0.116 0-0.208 0.015-0.326 0.013-1.361-0.007-2.723-0.007-4.087-0.013-40.292 0-80.585 0.002-120.877-0.013-2.859 0-5.797 0.1-8.567-0.478-6.227-1.3-10.285-4.84-11.827-10.043-0.547-1.583-0.853-3.302-0.87-5.145-0.027-2.88 0.649-5.486 1.937-7.71 1.777-3.384 4.902-5.765 9.204-6.89 2.060-0.622 4.355-0.98 6.877-1 1.078-0.010 2.158-0.010 3.237-0.016 0.788-0.007 1.576-0.015 2.364-0.011 26.826-0.167 53.654-0.064 80.48-0.072 16.442-0.004 32.881-0.002 51.116-0.002 0 0.029-0.002 0.058-0.002 0.087 71.918-0.004 143.835-0.020 215.752 0 6.806 0.002 13.699-0.281 20.393 0.672 8.203 1.17 12.583 7.052 12.545 15.047-0.040 7.96-4.351 13.616-12.609 15.026-3.85 0.656-7.859 0.489-11.797 0.489-59.167 0.027-118.335 0.018-177.502 0.018 0 0.015 0 0.031 0 0.045-18.48 0-36.958-0.004-55.437-0.004zM379.868 574.198c1.589-5.147 5.616-8.678 11.842-9.752 4.549-0.783 9.29-0.603 13.944-0.605 114.748-0.027 229.495-0.031 344.243 0 6.806 0.002 13.699-0.281 20.393 0.674 8.203 1.17 12.583 7.052 12.545 15.047-0.040 7.957-4.351 13.616-12.609 15.024-3.85 0.656-7.859 0.489-11.797 0.491-59.167 0.025-118.335 0.018-177.502 0.018 0 0.013 0 0.029 0 0.045-15.754 0-31.509-0.004-47.263-0.004 0 0.125 0 0.246 0 0.373-47.884 0-94.438 0.263-140.978-0.442-1.288-0.020-2.719-0.527-4.152-1.338-5.125-1.946-8.283-5.77-9.168-11.020-0.87-3-0.647-5.925 0.502-8.512zM503.632 498.948c-35.506-0.009-71.011 0.123-106.516-0.102-1.698-0.009-3.306-0.189-4.819-0.5-0.221-0.036-0.446-0.053-0.665-0.1-4.533-0.944-7.882-3.105-9.989-6.197-2.46-3.232-3.4-7.341-2.346-11.732 0.944-6.513 5.217-11.027 12.413-12.268 4.549-0.783 9.29-0.603 13.944-0.605 114.748-0.027 229.495-0.031 344.243 0.002 6.806 0 13.699-0.284 20.393 0.672 8.203 1.17 12.583 7.051 12.545 15.047-0.040 7.957-4.351 13.616-12.609 15.024-3.85 0.656-7.859 0.489-11.797 0.491-59.167 0.027-118.335 0.018-177.502 0.018 0 0.015 0 0.029 0 0.045-15.765 0-31.531-0.004-47.299-0.004 0 0.072 0 0.138 0 0.21-10.767-0.001-20.381 0.001-29.995-0.001zM164.64 207.647c8.040-0.66 28.827-0.27 37.131-0.27 0 35.514 0 69.527 0 103.717-10.252 0-28.138 0-38.908 0 0-33.538-0.1-65.668 0.244-97.795 0.022-1.993-0.513-5.482 1.533-5.652zM163 611.848c0 0 37.838-0.902 39.136-0.176 0 33.401 0 67.163 0 101.594-10.756 0-28.897 0-39.31 0 0-26.609 0.023-77.975 0.023-77.975l0.151-23.442zM163.487 510.424c0 0 0-66.098 0-100.857 8.067 0 39.289-0.1 39.289-0.1l0.17 9.279-0.174 67.596 0.206 24.043-39.491 0.039zM118.582 747.167h90.582c5.671-14.359 19.643-24.531 36.018-24.531 21.399 0 38.745 17.348 38.745 38.745 0 21.399-17.346 38.747-38.745 38.747-15.293 0-28.477-8.884-34.779-21.75h-91.821c-7.801 0-14.123-6.324-14.123-14.122v-2.967c0.001-7.801 6.322-14.122 14.123-14.122zM118.582 546.357h90.582c5.671-14.359 19.643-24.531 36.018-24.531 21.399 0 38.745 17.348 38.745 38.746s-17.346 38.747-38.745 38.747c-15.293 0-28.477-8.884-34.779-21.75h-91.821c-7.801 0-14.123-6.324-14.123-14.122v-2.967c0.001-7.802 6.322-14.123 14.123-14.123zM118.582 349.88h90.582c5.671-14.357 19.643-24.531 36.018-24.531 21.399 0 38.745 17.348 38.745 38.747s-17.346 38.746-38.745 38.746c-15.293 0-28.477-8.882-34.779-21.75h-91.821c-7.801 0-14.123-6.321-14.123-14.122v-2.967c0.001-7.8 6.322-14.123 14.123-14.123zM245.183 118.761c21.399 0 38.745 17.346 38.745 38.746s-17.346 38.745-38.745 38.745c-15.293 0-28.477-8.882-34.779-21.75h-91.821c-7.801 0-14.123-6.321-14.123-14.122v-2.967c0-7.799 6.322-14.122 14.123-14.122h90.582c5.672-14.358 19.643-24.53 36.018-24.53z" />
<glyph unicode="&#xe629;" glyph-name="dots" data-tags="dots" d="M270.629 455.314c0-80.457-58.514-131.657-138.971-131.657s-131.657 51.2-131.657 131.657 58.514 131.657 131.657 131.657 138.971-58.514 138.971-131.657zM519.314 586.971c-80.457 0-138.971-58.514-138.971-131.657s58.514-131.657 138.971-131.657 124.343 51.2 124.343 131.657-58.514 131.657-124.343 131.657zM892.343 586.971c-80.457 0-131.657-51.2-131.657-131.657s51.2-131.657 131.657-131.657 131.657 51.2 131.657 131.657-58.514 131.657-131.657 131.657z" />
<glyph unicode="&#xe62a;" glyph-name="dss" data-tags="dss" horiz-adv-x="866" d="M477.257 256.658c-0.731 9.728 2.048 19.675 8.777 27.648l23.625 28.087c12.142 14.409 34.523 17.554 50.249 7.241l9.582-6.363c7.607 4.754 15.579 8.923 23.771 12.507l0.366 11.191c0.585 19.237 15.579 35.109 34.889 36.864l39.643 3.218c18.213 0 34.011-12.873 37.595-30.647l2.194-10.971c0.293-0.073 0.585-0.219 0.951-0.293 28.965 22.674 45.787 48.567 45.787 76.215v114.834c0 13.312-4.169 26.112-11.483 38.473-40.448-70.071-188.782-122.149-366.007-122.149-177.079 0-325.486 52.005-366.007 122.149-7.095-12.507-11.191-25.307-11.191-38.619v-114.834c0-88.576 168.96-160.622 377.271-160.622 34.743 0.073 68.096 2.341 99.986 6.071zM473.819 197.778c1.097 0.366 2.194 0.805 3.365 1.024l12.581 2.56c0.951 4.096 2.414 7.973 3.657 11.995-12.215-1.682-24.795-2.999-37.522-4.096 7.241-1.536 13.531-5.705 17.92-11.483zM341.065 14.848l-5.632 0.146c-15.214 0.512-27.648 12.361-28.891 27.502l-1.975 22.967c-1.243 15.214 9.143 28.891 23.991 31.89l4.315 0.878c0.658 2.56 1.463 5.193 2.341 7.68l-3.365 3.657c-10.459 10.971-10.971 28.087-1.097 39.79l14.848 17.774c9.509 11.337 27.136 13.824 39.497 5.632l2.853-1.902c2.999 1.682 5.998 3.291 9.070 4.754l0.073 3.365c0.439 13.824 10.533 25.015 23.845 27.941-14.409-0.731-28.818-1.609-43.739-1.609-177.079 0-325.486 52.005-366.007 122.149-7.022-12.288-11.191-25.161-11.191-38.473v-114.907c0-83.456 149.87-151.771 341.211-159.525-0.073 0.146-0.146 0.219-0.146 0.293zM744.448 794.112c-7.387-64.951-168.594-116.955-367.177-116.955-198.437 0-359.643 52.005-367.031 116.955-6.437-11.849-10.24-24.137-10.24-36.791v-114.761c0-88.722 168.96-160.622 377.271-160.622 208.457 0 377.49 71.899 377.49 160.622v114.761c0 12.654-3.803 25.015-10.313 36.791zM377.271 713.582c203.191 0 367.762 54.345 367.762 121.563 0 67.145-164.571 121.49-367.762 121.49-203.045 0-367.689-54.418-367.689-121.563 0-67.072 164.645-121.49 367.689-121.49zM480.11 183.003l0.073-0.439c3.072-0.878 6.071-1.829 8.997-2.926l2.121 2.048c2.56 2.414 5.559 4.169 8.704 5.486l-19.895-4.023c0.073-0.073 0.073-0.073 0-0.146zM862.647 195.072c-0.951 11.191-10.167 20.041-21.431 20.261l-22.235 0.731c-4.681 12.946-10.898 25.234-18.578 36.571l12.142 18.286c6.51 9.435 4.754 22.016-3.95 29.33l-28.014 23.625c-8.558 7.314-21.358 6.949-29.477-0.805l-15.506-14.482c-13.019 6.29-26.917 10.752-41.253 13.312l-4.315 21.358c-2.194 11.045-12.434 18.651-23.625 17.774l-36.498-3.145c-11.191-1.024-20.041-10.167-20.334-21.431l-0.731-21.723c-13.97-5.047-27.209-11.995-39.424-20.699l-18.359 12.215c-9.362 6.217-21.87 4.462-29.184-4.169l-23.625-28.16c-7.241-8.558-6.875-21.285 0.805-29.477l16.165-17.262c-5.559-12.507-9.509-25.746-11.849-39.278 9.435 2.706 20.187 1.243 27.867-5.266l17.627-14.848c11.776-9.947 14.117-26.99 5.339-39.79l-1.829-2.779c1.243-2.341 2.487-4.681 3.584-7.095l3.657-0.146c15.214-0.512 27.648-12.288 28.891-27.502l1.975-22.967c1.243-15.287-9.070-28.965-23.991-31.89l-3.803-0.731c-0.731-2.706-1.609-5.339-2.56-7.973l3.145-3.291c8.777-9.362 10.094-22.674 4.608-33.719 3.438 0.805 6.729 2.414 9.509 5.047l18.213 17.189c11.995-5.632 24.576-9.728 37.595-12.215l4.974-25.015c2.194-11.045 12.434-18.651 23.625-17.774l36.498 3.145c11.191 1.024 20.041 10.167 20.407 21.431l0.805 24.503c13.312 4.681 25.966 11.045 37.595 19.017l20.114-13.312c9.362-6.217 21.943-4.462 29.257 4.096l23.552 28.014c7.387 8.631 6.949 21.285-0.731 29.477l-16.311 17.262c5.925 12.581 10.24 25.966 12.8 39.57l22.235 4.535c10.971 2.194 18.651 12.361 17.701 23.625l-3.072 36.571zM671.086 89.307c-39.424-3.438-74.24 26.039-77.531 65.39-3.291 39.497 26.112 74.24 65.463 77.605 39.424 3.291 74.24-26.039 77.531-65.463 3.365-39.497-26.039-74.313-65.463-77.531zM538.551 155.575l-17.627 14.848c-5.413 4.608-13.385 4.315-18.578-0.512l-9.728-9.143c-8.192 4.023-16.969 6.729-25.966 8.485l-2.779 13.385c-1.317 6.949-7.826 11.776-14.848 11.191l-22.967-1.975c-7.095-0.585-12.654-6.363-12.873-13.531l-0.439-13.678c-8.85-3.145-17.189-7.534-24.795-13.019l-11.63 7.68c-5.925 3.95-13.824 2.853-18.359-2.56l-14.921-17.774c-4.535-5.413-4.389-13.385 0.512-18.505l10.167-10.898c-3.511-7.973-6.071-16.311-7.461-24.869l-14.555-2.999c-6.949-1.39-11.776-7.826-11.191-14.848l1.975-22.967c0.585-7.095 6.363-12.581 13.458-12.873l15.726-0.439c2.853-7.534 6.583-14.629 11.118-21.211l-8.777-13.239c-3.877-5.925-2.779-13.824 2.633-18.432l17.627-14.848c5.413-4.608 13.458-4.315 18.578 0.439l11.557 10.825c7.534-3.511 15.506-6.144 23.625-7.68l3.145-15.799c1.39-6.949 7.826-11.703 14.848-11.191l22.967 1.975c7.022 0.585 12.654 6.363 12.873 13.531l0.439 15.506c8.411 2.999 16.384 6.949 23.698 11.995l12.727-8.411c5.925-3.95 13.824-2.853 18.432 2.633l14.848 17.627c4.608 5.413 4.389 13.385-0.439 18.578l-10.24 10.898c3.803 7.899 6.51 16.384 8.046 24.942l13.97 2.926c6.949 1.317 11.776 7.753 11.191 14.848l-1.975 22.967c-0.585 7.095-6.363 12.581-13.531 12.8l-13.97 0.439c-2.926 8.192-6.802 15.872-11.776 23.040l7.607 11.483c4.169 5.851 3.145 13.824-2.341 18.359zM451.803 22.601c-24.795-2.121-46.811 16.457-48.859 41.253-2.121 24.869 16.457 46.738 41.253 48.859 24.869 2.121 46.811-16.384 48.859-41.253 2.121-24.869-16.384-46.811-41.253-48.859z" />
<glyph unicode="&#xe62b;" glyph-name="ebook" data-tags="ebook" d="M523.4 667.467c0.509-11.397 0.333-22.826 0.333-34.243-0.009-123.085-0.040-246.17-0.072-369.254-0.004-16.902-4.799-24.428-15.482-24.413-10.752 0.013-15.598 7.721-15.589 24.362 0.034 65.647 0.013 131.292 0.027 196.937 0.011 66.002 0.009 132.005 0.018 198.006 0.002 2.853-0.074 5.721 0.185 8.556 0.848 9.272 6.331 14.591 15.308 14.591 8.944-0.001 14.857-5.216 15.272-14.542zM435.869 524.125c-42.83 17.56-87.203 28.717-133.397 31.759-61.719 4.069-122.239-5.225-182.352-17.755-12.592-2.634-18.245-9.786-16.404-19.487 1.821-9.659 9.915-13.643 22.679-11.437 27.007 4.669 53.904 9.98 81.038 13.663 42.895 5.826 86.132 8.417 128.705-1.134 30.067-6.745 59.535-16.426 89.045-25.484 12.935-3.962 23.944 1.585 23.899 10.172-0.257 12.228-5.759 16.641-13.213 19.703zM123.889 613.598c23.493 4.134 46.857 8.951 70.435 12.357 46.022 6.616 92.409 10.665 138.279 1.027 31.181-6.531 61.462-17.346 92.366-25.442 5.781-1.52 13.426-0.748 18.587 1.993 3.257 1.734 6.018 10.172 4.52 13.706-2.315 5.46-7.645 11.221-13.107 13.513-51.803 21.715-105.835 33.087-166.634 32.851-48.098-0.535-99.817-8.116-151.020-19.638-10.688-2.398-15.741-10.321-13.536-19.402 2.056-8.438 9.938-12.764 20.11-10.965zM434.54 430.111c-51.888 21.584-105.942 32.766-141.812 32.658-71.978-0.535-122.603-8.288-172.866-18.953-12.464-2.657-18.116-9.96-16.125-19.681 1.971-9.574 10.022-13.364 22.915-11.116 27.346 4.754 54.609 10.174 82.085 13.835 41.46 5.524 83.326 8.31 124.466-0.877 31.138-6.94 61.634-16.855 92.214-26.085 7.645-2.29 14.862-3.128 19.232 3.513 2.869 4.368 4.219 11.799 2.504 16.489-1.604 4.411-7.667 8.159-12.613 10.217zM434.926 333.612c-52.232 21.717-106.627 32.98-163.292 32.681-51.183-0.406-101.446-8.266-151.386-18.717-12.955-2.721-18.888-10.558-16.446-20.453 2.27-9.166 10.578-12.763 23.471-10.386 21.715 4.005 43.344 8.525 65.167 11.652 43.11 6.167 86.346 9.593 129.884 3.339 35.442-5.096 69.75-14.005 102.708-27.946 7.326-3.105 14.949-3.663 19.297 2.975 2.998 4.605 4.067 12.208 2.57 17.475-1.157 4.005-7.325 7.453-11.972 9.38zM1024 692.279c-0.023-182.375-0.023-364.748-0.085-547.143-0.023-26.299-15.206-39.426-41.033-36.149-52.703 6.681-105.406 13.212-158.109 19.808-70.156 8.782-139.543-1.114-209.036-8.629-2.549-0.279-6.339-1.435-7.174-3.254-5.632-12.4-17.369-15.442-28.505-18.547-22.395-6.221-45.109-9.067-67.886-8.694v0c-0.058-0.002-0.114 0-0.172 0s-0.114-0.002-0.172 0v0c-22.777-0.373-45.491 2.473-67.886 8.694-11.136 3.105-22.873 6.148-28.505 18.547-0.835 1.819-4.625 2.975-7.174 3.254-69.493 7.515-138.879 17.411-209.036 8.629-52.703-6.596-105.406-13.127-158.109-19.808-25.828-3.277-41.011 9.85-41.033 36.149-0.062 182.395-0.062 364.768-0.085 547.143 0 2.485 0.085 4.989 0.257 7.473 1.435 19.574 9.531 28.268 29.212 30.752 0.192 2.998 0.942 6.233 0.491 9.272-2.57 17.647 6.853 28.569 21.802 33.558 25.228 8.438 50.732 17.303 76.839 21.674 65.98 11.007 132.54 15.054 199.355 7.451 60.306-6.853 118.085-23.085 173.273-48.29 3.855-1.763 7.131-2.375 10.601-1.812v0.034c0.058-0.011 0.114-0.007 0.172-0.015 0.058 0.009 0.114 0.004 0.172 0.015v-0.034c3.468-0.562 6.745 0.049 10.601 1.812 55.188 25.205 112.966 41.438 173.273 48.29 66.815 7.602 133.375 3.555 199.355-7.451 26.107-4.37 51.612-13.237 76.839-21.674 14.949-4.989 24.37-15.911 21.802-33.558-0.451-3.040 0.299-6.274 0.491-9.272 19.681-2.485 27.777-11.178 29.212-30.752 0.169-2.484 0.254-4.988 0.254-7.473zM963.223 728.899c0.042 11.478-3.534 17.56-13.984 19.83-29.19 6.339-58.228 13.94-87.739 18.181-48.464 6.982-97.439 8.61-146.288 4.476-68.168-5.781-133.056-23.92-194.431-54.437-2.375-1.197-5.957-1.638-8.782-1.049-2.823-0.59-6.407-0.147-8.782 1.049-61.375 30.518-126.264 48.656-194.431 54.437-48.848 4.134-97.823 2.507-146.288-4.476-29.511-4.241-58.549-11.842-87.739-18.181-10.451-2.27-14.027-8.353-13.984-19.83 0.471-178.091 0.364-356.183 0.386-534.272 0-3.491 0-7.004 0-12.315 5.717 1.562 10.022 2.527 14.198 3.939 67.779 23.022 137.25 35.594 209.013 33.496 75.339-2.207 147.509-19.19 216.982-47.906 3.79-1.576 7.118-2.167 10.471-1.915v0.009c0.058-0.007 0.114 0 0.172-0.004 0.058 0.004 0.114-0.002 0.172 0.004v-0.009c3.353-0.252 6.681 0.339 10.471 1.915 69.473 28.717 141.643 45.699 216.982 47.906 71.763 2.098 141.234-10.473 209.013-33.496 4.176-1.413 8.482-2.377 14.198-3.939 0 5.31 0 8.824 0 12.315 0.023 178.089-0.085 356.181 0.386 534.272zM598.82 494.25c29.509 9.058 58.978 18.739 89.045 25.484 42.574 9.551 85.81 6.96 128.705 1.134 27.134-3.683 54.031-8.994 81.038-13.663 12.763-2.205 20.857 1.779 22.679 11.437 1.842 9.701-3.812 16.853-16.404 19.487-60.114 12.529-120.634 21.824-182.352 17.755-46.194-3.043-90.567-14.198-133.397-31.759-7.453-3.062-12.955-7.475-13.212-19.703-0.046-8.588 10.963-14.134 23.899-10.172zM580.444 603.534c5.161-2.741 12.806-3.513 18.587-1.993 30.904 8.096 61.185 18.91 92.366 25.442 45.871 9.638 92.257 5.59 138.279-1.027 23.578-3.406 46.942-8.223 70.435-12.357 10.172-1.799 18.054 2.527 20.109 10.964 2.205 9.081-2.848 17.004-13.536 19.402-51.203 11.522-102.922 19.103-151.020 19.638-60.799 0.236-114.831-11.136-166.634-32.851-5.462-2.292-10.792-8.054-13.107-13.513-1.497-3.534 1.265-11.971 4.521-13.705zM598.583 399.893c30.58 9.23 61.076 19.145 92.214 26.085 41.141 9.187 83.007 6.401 124.466 0.877 27.475-3.661 54.739-9.081 82.085-13.835 12.893-2.248 20.944 1.543 22.915 11.116 1.991 9.721-3.661 17.025-16.125 19.681-50.263 10.665-100.888 18.417-172.866 18.953-35.871 0.107-89.924-11.074-141.812-32.658-4.947-2.058-11.007-5.806-12.613-10.217-1.714-4.69-0.364-12.121 2.504-16.489 4.37-6.641 11.587-5.803 19.232-3.513zM903.752 347.576c-49.94 10.451-100.203 18.311-151.386 18.717-56.665 0.299-111.060-10.964-163.292-32.681-4.647-1.927-10.815-5.375-11.971-9.379-1.498-5.268-0.429-12.87 2.57-17.475 4.348-6.638 11.971-6.080 19.297-2.975 32.957 13.942 67.266 22.851 102.708 27.946 43.538 6.254 86.774 2.828 129.884-3.339 21.824-3.128 43.453-7.647 65.167-11.652 12.893-2.377 21.201 1.221 23.471 10.386 2.442 9.894-3.489 17.731-16.447 20.452z" />
<glyph unicode="&#xe62c;" glyph-name="edit" data-tags="edit" d="M321.829 23.771c-80.457 80.457-160.914 160.914-234.057 234.057 182.857 182.857 365.714 365.714 548.571 548.571 80.457-80.457 160.914-160.914 234.057-234.057-182.857-190.171-365.714-365.714-548.571-548.571zM906.971 601.6c-80.457 80.457-160.914 160.914-241.371 241.371 0 0 0 7.314 7.314 7.314 29.257 29.257 58.514 58.514 95.086 95.086 21.943 21.943 51.2 21.943 73.143 0 51.2-58.514 109.714-117.029 168.229-168.229 21.943-21.943 21.943-51.2 0-73.143-36.571-29.257-65.829-65.829-102.4-102.4 7.314 7.314 0 7.314 0 0zM14.629-64c87.771 14.629 182.857 29.257 270.629 43.886-80.457 80.457-160.914 160.914-241.371 241.371-14.629-87.771-29.257-175.543-43.886-270.629 0 0-7.314-14.629 14.629-14.629z" />
<glyph unicode="&#xe62d;" glyph-name="endpoint" data-tags="endpoint" d="M149.211 698.587l-50.176-50.176c-6.583-6.583-8.558-16.823-4.974-25.454s11.995-14.629 21.285-14.629h211.749c12.727 0 23.113 10.971 23.113 23.771v211.749c0 9.362-5.705 17.701-14.336 21.285-8.558 3.657-18.505 1.609-25.161-4.901l-50.176-50.249-132.974 132.974c-21.65 21.65-56.759 21.65-78.482 0l-32.841-32.914c-10.386-10.386-16.238-24.503-16.238-39.205s5.851-28.818 16.238-39.278l132.974-132.974zM327.095 286.135h-211.749c-9.362 0-17.774-5.193-21.285-13.824-3.584-8.631-1.609-18.359 4.901-24.942l50.249-50.103-132.974-132.901c-10.386-10.459-16.238-24.503-16.238-39.205s5.851-28.818 16.238-39.205l32.914-32.914c21.723-21.65 56.832-21.65 78.482 0l132.974 132.974 50.176-50.176c6.656-6.583 16.603-8.558 25.161-4.974 8.631 3.511 14.263 11.922 14.263 21.211v211.749c0 12.727-10.386 22.309-23.113 22.309zM874.715 197.339l50.176 50.176c6.583 6.583 8.485 16.165 4.974 24.722-3.511 8.631-11.922 13.824-21.285 13.824h-211.675c-12.727 0-23.113-9.582-23.113-22.309v-211.749c0-9.289 5.705-17.701 14.336-21.285 8.631-3.511 18.578-1.609 25.161 5.047l50.249 50.176 132.974-132.974c21.65-21.723 56.759-21.723 78.409 0l32.914 32.914c10.313 10.459 16.165 24.576 16.165 39.278s-5.851 28.818-16.311 39.205l-132.974 132.974zM696.905 608.402h211.675c9.362 0 17.774 5.998 21.285 14.629s1.609 18.651-4.974 25.307l-50.176 50.249 132.974 133.047c10.386 10.386 16.311 24.503 16.311 39.278s-5.851 28.818-16.311 39.205l-32.914 32.914c-21.65 21.65-56.759 21.65-78.409 0l-132.974-132.974-50.176 50.176c-6.583 6.583-16.603 8.558-25.161 4.974-8.631-3.584-14.336-11.995-14.336-21.285v-211.749c0-12.727 10.459-23.771 23.186-23.771zM512 612.791c-91.063 0-164.791-73.801-164.791-164.791s73.728-164.791 164.791-164.791 164.718 73.801 164.718 164.791-73.728 164.791-164.718 164.791zM512 330.386c-64.951 0-117.614 52.663-117.614 117.614s52.59 117.614 117.614 117.614c64.951 0 117.614-52.663 117.614-117.614s-52.663-117.614-117.614-117.614z" />
<glyph unicode="&#xe62e;" glyph-name="enterprise-app" data-tags="enterprise-app" horiz-adv-x="892" d="M891.611 294.402c0 24.866 0 49.736 0 75.335 0 6.585-3.656 12.433-9.509 15.361-60.71 29.986-153.599 76.067-215.772 106.786l-3.656 2.196c-8.777 4.389-18.286 6.581-27.063 6.581-2.924 0-6.585 0-9.509-1.46-6.585-0.732-13.165-2.929-19.75-5.853-9.509-4.389-19.013-9.509-28.522-13.897-22.674-11.701-46.080-23.406-68.754-34.375-12.437-6.585-25.603-13.165-38.036-19.018-6.585-2.929-12.433-6.585-19.018-9.509-16.089-8.777-32.915-16.821-49.004-24.871-3.656-2.192-11.705-5.849-9.509-13.897 0.732-5.121 5.121-8.777 9.509-10.969 44.616-22.674 89.964-45.349 133.853-67.294 28.522-13.893 57.049-28.522 85.576-42.42 10.241-5.853 21.21-8.045 31.451-8.045 10.973 0 21.21 2.192 32.183 8.045 38.036 19.018 76.799 38.031 114.835 57.049l35.107 16.826c6.585 3.656 13.897 7.313 21.942 10.969l2.929 1.464c0-21.21 0-43.156 0-64.366 0-57.781 0-117.759 0-176.272 0-19.018-7.317-31.455-24.871-40.232-56.321-27.794-112.639-56.317-168.96-84.111v39.494c0 52.665 0 107.522 0 160.915 0 6.581-0.732 13.165-1.464 18.286-5.116 20.478-18.286 35.839-39.496 46.812-2.924 1.46-5.121 2.924-8.045 4.389-40.96 20.478-83.384 41.692-123.611 61.438l-37.304 18.286c-16.821 8.777-34.375 17.554-51.933 26.331-2.924 1.464-5.849 2.196-8.045 2.196-2.192 0-3.656-0.732-5.121-2.196-3.656-2.192-5.849-5.849-5.849-12.433 0-0.732 0-2.192 0-3.656v-1.464c0-21.21 0-42.42 0-63.634 0-52.661 0-107.518 0-160.915 0-29.986 13.165-51.929 40.96-65.826 18.286-9.509 39.496-20.482 62.17-31.451 25.599-13.165 51.933-26.335 77.531-39.5s50.469-24.866 70.946-35.839c1.464-0.732 2.929-0.732 4.393-1.46l0.728-0.732c1.464-0.732 3.661-1.464 5.853-1.464 2.924 0 5.121 0.732 8.045 2.196 13.165 6.581 27.063 13.165 40.232 19.746l32.178 16.094c12.437 6.581 24.871 12.433 37.304 19.018 27.794 13.165 56.321 27.79 84.116 42.42 27.794 13.897 41.692 35.111 41.692 65.83-0.733 64.366-0.733 129.464-0.733 193.098zM811.884 354.375c-46.808-23.402-94.353-46.808-141.165-70.214-5.121-2.929-10.969-4.389-16.821-4.389-5.121 0-10.973 1.46-16.094 4.389-42.42 21.21-84.111 41.692-125.804 62.902l-64.366 32.183 27.794 13.897c33.647 16.821 68.022 33.647 102.401 50.469v0.732c13.897 6.581 28.522 13.897 42.42 20.478 1.464 0.732 3.661 1.464 5.853 2.929 2.196 0 5.121 0.732 7.313 0.732h0.732c6.585-0.732 12.437-2.196 16.826-4.393 14.625-6.581 29.986-14.625 47.54-22.674 48.276-24.134 103.134-51.196 144.094-71.679l-30.724-15.361zM636.344 9.875v-33.647c-16.094 8.045-37.304 18.286-58.514 29.259-19.018 10.241-38.036 19.018-50.469 25.599l-17.558 8.777c-21.942 10.973-44.616 22.674-67.29 33.647-17.554 8.777-25.599 21.942-25.599 41.692 0.732 47.54 0 96.549 0 143.357 0 18.286 0 36.571 0 54.857l45.349-22.674c49.004-24.866 100.937-49.736 150.674-75.335 16.089-8.045 23.406-19.75 23.406-37.304-0.733-56.321-0.001-112.639-0.001-168.228zM558.812-39.861c16.089-8.777 32.183-16.826 46.812-24.139-186.518 0-371.567 0-558.080 0-43.156 0-47.544 4.389-47.544 46.080 0 156.526 0 312.321 0 468.116 0 155.063 0 309.393 0 464.456 0 40.96 3.656 44.616 45.349 44.616 179.933 0 359.861-0.732 539.794 0.732 22.674 0 35.839-5.121 40.96-19.75v-422.764c-8.777-0.732-16.821-2.929-25.599-7.317-0.732 0-1.464-0.728-2.196-0.728-6.581-3.661-13.897-6.585-20.478-10.241 0 125.071 0 311.589 0 411.794-14.629 0-27.063 0-38.768 0-149.21 0-298.424-0.732-447.634 1.46-33.647 0-44.616-7.313-43.884-43.152 1.46-234.79 0.728-468.848 0.728-703.634 0-50.469 0.732-100.206-0.728-150.674-0.732-24.139 8.045-31.451 31.451-30.723 55.589 1.464 111.906 0 167.496 0.732 8.777 0 17.554 2.196 29.259 3.656 0 50.469 0 98.746 0 148.482 19.746 0 57.049 0 76.799 0v-57.781c0-29.991 0-60.71 0-92.161 51.933 0 102.397 0 151.406 0 18.286-9.508 36.572-18.285 54.858-27.061zM517.121 593.554c-24.871 0-49.004 0-75.339 0 0 24.871 0 49.004 0 76.071 24.871 0 48.276 0 75.339 0 0-26.335 0-49.741 0-76.071zM516.389 848.089c0-24.866 0-49.004 0-76.067-26.331 0-49.004 0-73.875 0 0 25.603 0 50.469 0 76.067 24.87 0 47.544 0 73.875 0zM434.469 491.884c24.871 0 48.272 0 74.607 0 0-8.777 0-17.554 0-27.063-15.361-7.313-30.723-15.357-46.080-22.674l-28.526-14.629c-0.001 20.482-0.001 40.964-0.001 64.366zM351.817 772.754c-24.139 0-48.272 0-76.067 0 0 26.331 0 49.736 0 75.335 25.599 0 49.736 0 76.067 0 0-24.866 0-48.272 0-75.335zM349.625 416.549c-23.406 0-49.009 0-73.143 0 0 24.139 0 47.54 0 75.335 24.866 0 48.272 0 74.603 0 0-15.357 0-30.719 0-46.808v-0.732l-1.46-27.795zM351.085 593.554c-24.866 0-48.272 0-75.335 0 0 26.331 0 49.736 0 76.071 25.599 0 49.736 0 75.335 0 0-25.603 0-49.741 0-76.071zM276.482 314.147c19.013 0 37.299 0 56.317 0v-16.821c0-19.75 0-39.496 0-59.246-18.286 0-37.304 0-56.317 0 0 24.866 0 48.273 0 76.067zM186.514 60.344c-25.599 0-49.004 0-74.603 0 0 24.866 0 49.004 0 75.335 24.134 0 48.272 0 74.603 0 0-24.866 0-49.736 0-75.335zM186.514 237.349c-25.599 0-49.004 0-74.603 0 0 24.139 0 49.004 0 76.067 24.134 0 48.272 0 74.603 0 0-25.599 0-49.005 0-76.067zM186.514 415.817c-25.599 0-49.004 0-74.603 0 0 24.871 0 49.004 0 75.339 24.134 0 48.272 0 74.603 0 0-24.871 0-49.009 0-75.339zM186.514 772.022c-26.331 0-49.736 0-75.335 0 0 25.603 0 49.736 0 76.067 24.866 0 49.736 0 75.335 0 0-24.866 0-48.272 0-76.067zM185.781 592.821c-24.866 0-48.272 0-74.603 0 0 26.335 0 51.201 0 77.531 24.866 0 48.272 0 74.603 0 0-25.599 0-51.196 0-77.531z" />
<glyph unicode="&#xe62f;" glyph-name="enterprise-wipe" data-tags="enterprise-wipe" d="M837.486 593.554c26.331 0 50.469 0 75.335 0 0 26.331 0 49.736 0 76.071-27.063 0-50.469 0-75.335 0 0-27.067 0-51.201 0-76.071zM912.089 491.156c-27.063 0-50.464 0-73.143 0 0-27.067 0-51.201 0-74.607 26.335 0 49.009 0 73.143 0 0 26.33 0 49.004 0 74.607zM912.089 313.415c-27.063 0-49.004 0-73.871 0 0-25.599 0-50.469 0-75.335 25.599 0 49.736 0 73.871 0 0 26.331 0 49.737 0 75.335zM838.219 61.804c12.433 0 24.866 0 36.571 0 12.433 0 24.866 0 37.299 0 0 26.335 0 49.741 0 74.607-25.599 0-49.004 0-73.871 0 0-26.33 0-50.469 0-74.607zM838.219 848.089c0-25.599 0-50.464 0-76.067 24.866 0 47.54 0 73.143 0 0 27.063 0 51.201 0 76.067-25.602 0-49.009 0-73.143 0zM747.518 848.089c-26.331 0-50.464 0-76.067 0 0-25.599 0-49.004 0-75.335 27.794 0 51.201 0 76.067 0 0 27.063 0 50.469 0 75.335zM671.451 593.554c26.331 0 50.469 0 75.339 0 0 26.331 0 50.469 0 76.071-26.335 0-49.736 0-75.339 0 0-26.335 0-49.741 0-76.071zM671.451 304.639c16.094-3.656 26.331-10.969 31.451-21.942 7.317-16.089-1.46-33.643-1.46-34.375-1.464-3.661-2.929-6.585-5.121-10.241 16.821 0 33.643 0 50.469 0 0 26.331 0 50.469 0 76.067-25.603 0-49.009 0-75.339 0 0.001-2.924 0.001-6.581 0.001-9.509zM746.058 416.549c0 26.331 0 50.469 0 75.335-25.603 0-49.004 0-73.875 0 0-27.794 0-51.196 0-75.335 25.599 0 49.737 0 73.875 0zM582.219 848.089c-26.335 0-50.469 0-75.339 0 0-26.331 0-50.464 0-76.067 25.603 0 49.004 0 75.339 0 0 27.795 0 51.201 0 76.067zM582.219 72.045c-3.661-3.656-7.317-8.045-10.973-11.701 3.656 0 7.313 0 10.973 0 0 3.656 0 8.044 0 11.701zM507.611 415.817c25.599 0 49.004 0 74.607 0 0 26.331 0 50.469 0 75.339-26.335 0-51.201 0-74.607 0 0-26.335 0-50.469 0-75.339zM506.879 592.821c26.331 0 49.736 0 74.607 0 0 26.335 0 51.933 0 77.531-26.331 0-49.736 0-74.607 0 0-26.331 0-51.196 0-77.531zM980.844 960c-179.929-1.464-359.861-0.732-539.79-0.732-41.692 0-45.353-3.656-45.353-44.616 0-154.331 0-307.933 0-462.264l14.629-10.973-3.656-3.656-10.973-11.701v-0.732c0-12.433 0-25.599 0-38.036l38.768 43.156 2.924-2.929c2.196-1.46 4.389-3.656 6.585-5.116 0 149.21 0 297.688-1.464 446.902 0 35.839 10.973 43.152 44.616 43.152 149.214-2.192 298.424-1.46 447.639-1.46h38.764v-730.696c-0.732-54.857 0-40.232 0-155.067v-38.764l-0.732-2.196h-224.549v152.871h-76.799v-152.871h-188.71c-35.839-26.331-61.438-40.96-62.17-40.96-2.196-2.192-5.121-3.656-7.313-4.389 7.313-2.191 16.821-2.924 29.987-2.924 10.241 0 21.21 0 31.451 0h500.299c0.732 0 2.192 0 3.656 0 32.183-2.192 43.884 10.241 43.884 43.156l0.732 848.456c1.464 29.259-1.464 59.246 0.732 88.504 2.196 32.183-10.241 43.884-43.157 43.884zM468.116-15.728c0 0 0 0 0.728 0 25.603 18.286 57.054 43.889 89.969 76.071 8.045 7.313 15.357 15.357 23.406 23.406v0.732c39.496 41.688 78.264 93.621 105.326 153.599 2.192 4.389 4.389 8.777 6.581 13.897 0 0 7.317 14.629 1.464 27.794-3.656 7.313-11.705 13.165-24.139 16.821-0.732 0-1.464 0.732-2.192 0.732h-0.732c-6.585 2.924-154.331 60.71-224.549 114.835-2.924 2.192-5.853 5.121-8.777 7.313l-203.339-226.009c13.897-19.75 102.401-144.094 139.705-217.236 0-0.732 8.045-26.331 23.406-31.451 2.192-0.732 5.116-1.464 7.313-0.732 4.389 0 9.509 2.196 13.897 5.853 0.733 0.731 21.211 11.701 51.934 34.374zM400.089-20.116c-0.728 2.196-2.192 5.853-4.389 9.509-24.866 49.736-122.879 198.951-124.339 200.411l-1.464 2.929 2.192 2.192 123.611 134.585 43.889 48.272 2.924-2.192c0.732 0 0.732-0.732 1.464-0.732 16.821-10.973 68.754-37.304 117.759-61.442h0.732c6.585-2.924 13.165-6.581 19.75-9.504 37.299-17.558 69.482-32.915 76.799-35.844l2.192 1.464 2.196-4.389c0.732-2.196 2.192-4.389-20.482-46.812l-0.728-2.192h-2.197c-0.732 0-1.464-0.732-2.924-0.732-13.165 0-35.111 10.241-54.857 21.942-0.732 0-0.732 0-1.464 0-16.821 10.241-31.451 19.75-36.571 23.406-4.389-0.732-5.121-2.196-5.121-2.196 0-0.728 1.464-2.192 2.924-3.656l0.732-1.46c0.732-2.196 5.853-8.049 12.437-16.094h0.728c15.361-16.821 40.96-42.424 58.518-59.978l2.924-2.192-2.196-2.929-32.911-44.616-5.121-6.581-2.929 0.728c-9.509 2.929-19.746 8.049-30.719 13.897 0 0 0 0-0.732 0-30.719 17.554-61.438 42.424-66.558 46.080-5.121 1.464-7.317 0.732-8.045 0.732-0.732-1.464 0-5.121 2.192-8.045l37.304-42.424 17.554-19.75c10.241-12.433 16.094-27.063 16.094-27.79l1.46-2.196-2.192-2.196-21.942-19.746-26.335-24.139-2.924 1.464c-5.853 2.924-26.331 19.746-45.349 35.107-16.094 13.165-30.719 25.599-34.379 28.526-10.236 2.924-12.433 0.732-12.433 0.732-0.732-1.464 1.464-6.585 4.389-10.241 12.433-10.973 30.719-41.692 41.692-61.442 6.585-10.236 10.241-18.286 10.973-19.013l1.46-3.661-10.969-6.581-42.424-25.603-2.196 4.391zM397.897 439.956l-2.196 1.46-40.228 30.723c-2.192 2.192-38.764 25.599-62.902-0.732l-43.156-47.544-197.482 179.201c-2.196 0.732-5.121 2.196-6.585 2.196s-3.656-0.732-5.853-1.464l-2.192-0.732-28.525-31.451c-1.464-2.196-1.464-7.313 1.464-10.241l198.214-180.661-35.107-40.228c-1.464-0.732-27.063-31.455-2.924-69.486l32.183-43.156 195.29 212.116z" />
<glyph unicode="&#xe630;" glyph-name="error" data-tags="error" d="M317.659 766.537l-124.197-124.123 194.414-194.341-194.341-194.414 124.123-124.123 194.414 194.414 194.414-194.414 124.123 124.123-194.414 194.414 194.414 194.341-124.197 124.123-194.341-194.414-194.414 194.414zM512 960c282.697 0 512-229.303 512-512 0-282.843-229.303-512-512-512-282.77 0-512 229.157-512 512 0 282.697 229.23 512 512 512z" />
<glyph unicode="&#xe631;" glyph-name="export" data-tags="export" d="M1024 396.8v-299.886c-14.629-80.457-65.829-131.657-138.971-153.6-7.314 0-7.314 0-14.629-7.314h-716.8c-80.457 14.629-124.343 58.514-153.6 138.971 7.314 7.314 0 7.314 0 14.629v716.8c14.629 65.829 51.2 117.029 117.029 146.286 14.629 0 21.943 0 29.257 7.314h343.771v-73.143h-307.2c0 0 0 0 0 0-36.571 0-65.829-14.629-87.771-43.886-14.629-21.943-21.943-43.886-21.943-65.829v-475.429c0-58.514 0-117.029 0-175.543 0-43.886 14.629-73.143 43.886-95.086 14.629-14.629 36.571-21.943 65.829-21.943h512c43.886 0 95.086 0 138.971 0 29.257 0 58.514 7.314 80.457 29.257s29.257 43.886 29.257 80.457c0 58.514 0 109.714 0 168.229v102.4h80.457zM592.457 696.686c-124.343-51.2-212.114-138.971-277.943-248.686-36.571-73.143-65.829-146.286-80.457-234.057 0-7.314 0-21.943 0-36.571v-36.571h73.143l7.314 29.257c0 14.629 0 21.943 7.314 36.571 0 14.629 7.314 36.571 7.314 51.2 43.886 168.229 146.286 292.571 299.886 365.714 73.143 29.257 153.6 51.2 248.686 58.514l-102.4-102.4 51.2-51.2 197.486 204.8-190.171 197.486-58.514-51.2 102.4-109.714c-14.629 0-29.257 0-43.886-7.314-87.771-7.314-168.229-29.257-241.371-65.829z" />
<glyph unicode="&#xe632;" glyph-name="factory-reset" data-tags="factory-reset" d="M381.232 697.895v-110.156c0-14.226 11.607-25.83 25.835-25.83h4.491c14.223 0 25.83 11.605 25.83 25.83v142.165c21.339 8.891 44.080 14.975 67.852 17.878v-203.375c0-14.226 11.607-25.83 25.83-25.83h4.495c14.223 0 25.83 11.605 25.83 25.83v204.31c23.679-2.152 46.419-7.487 67.852-15.629v-145.348c0-14.226 11.607-25.83 25.83-25.83h4.495c14.223 0 25.83 11.605 25.83 25.83v115.866c65.795-45.578 109.5-120.826 112.027-206.275h17.692c8.237 0 14.879-6.739 14.879-14.882v-27.422c0-8.237-6.736-14.882-14.879-14.882h-558.648c-8.237 0-14.884 6.739-14.884 14.882v27.328c0 8.237 6.741 14.882 14.884 14.882h20.589c2.341 82.077 42.773 154.611 104.166 200.658zM743.246 340.844c7.955 19.468 17.031 24.991 17.031 24.991s3.090 1.216 27.424 1.216 21.339 24.989 21.339 24.989v31.728c0 0-67.107 0-129.25 0-4.21-144.507-136.549-150.029-144.505-149.373-152.366 13.384-143.196 149.373-143.196 149.373h-129.902c0 0 0.652-27.424 1.87-37.157 1.214-9.735 8.518-21.996 30.509-20.123 21.996 1.872 29.857-15.817 29.857-15.817s2.433-5.522 11.603-24.989c9.174-19.466 4.308-28.638 4.308-28.638s-3.090-7.301-16.473-19.466c-13.384-12.167-2.433-26.208-2.433-26.208s36.594-37.81 46.982-45.765 22.558-4.866 22.558-4.866 10.388 7.299 15.255 14.038c12.165 16.752 29.201 6.739 29.201 6.739s13.384-4.306 30.509-11.605c17.036-7.301 17.687-16.473 17.687-16.473s3.090-3.65 2.438-22.554c-0.656-18.906 16.469-23.212 16.469-23.212s43.897-1.216 64.58 0.656c20.683 1.87 21.339 12.165 20.683 30.509-0.656 18.252 11.607 27.424 11.607 27.424s2.433-1.216 25.643 10.388 34.161 4.866 34.161 4.866 0 0 15.255-14.038c15.255-14.041 29.294-3.090 29.294-3.090s32.942 32.944 46.326 45.765c13.384 12.823 3.652 27.424-6.080 34.723-17.036 18.906-10.951 32.288-10.951 32.288s2.246 4.214 10.201 23.68zM985.625 638.038c-24.594 58.138-59.79 110.346-104.616 155.172s-97.031 80.025-155.17 104.614c-60.205 25.464-124.143 38.377-190.041 38.377-103.522 0-202.429-31.993-286.027-92.522-40.228-29.127-75.692-64.078-105.406-103.882-18.777-25.149-35.013-51.913-48.549-79.987-18.259 53.592-35.71 104.96-53.339 156.971-0.813 2.395-3.419 3.683-5.817 2.871-11.531-3.918-22.165-7.477-33.545-11.322-2.388-0.806-3.674-3.391-2.884-5.781 25.389-76.471 50.572-152.035 76.277-229.143 0.799-2.402 3.402-3.701 5.804-2.895 76.219 25.593 151.218 50.882 227.438 76.477 2.384 0.799 3.674 3.379 2.884 5.768-3.937 11.882-7.562 23.065-11.276 34.428-0.79 2.409-3.393 3.712-5.794 2.908-49.227-16.489-97.263-32.701-146.447-49.178 11.415 22.84 24.857 44.676 40.245 65.286 26.317 35.25 57.723 66.201 93.343 91.993 73.955 53.547 161.473 81.851 253.094 81.851 58.339 0 114.915-11.418 168.165-33.94 51.442-21.759 97.652-52.915 137.34-92.603s70.844-85.895 92.603-137.34c22.518-53.248 33.938-109.826 33.938-168.163s-11.42-114.915-33.938-168.163c-21.759-51.444-52.915-97.652-92.603-137.34s-85.898-70.844-137.34-92.603c-53.25-22.522-109.826-33.94-168.165-33.94-90.978 0-177.991 27.94-251.634 80.799-35.482 25.467-66.831 56.047-93.188 90.891-25.871 34.207-46.406 71.853-61.067 111.942-0.705 1.933-2.826 2.942-4.768 2.252l-45.853-16.321c-1.955-0.696-2.982-2.855-2.268-4.803 16.585-45.478 39.844-88.169 69.17-126.942 29.759-39.348 65.161-73.879 105.228-102.638 83.245-59.75 181.584-91.335 284.379-91.335 65.897 0 129.83 12.913 190.041 38.377 58.138 24.589 110.344 59.788 155.17 104.614s80.023 97.034 104.616 155.172c25.464 60.205 38.375 124.143 38.375 190.038s-12.91 129.83-38.375 190.035z" />
</font>
</defs>
</svg>
